<?xml version="1.0" standalone="no"?>
<!DOCTYPE svg PUBLIC "-//W3C//DTD SVG 1.1//EN" "http://www.w3.org/Graphics/SVG/1.1/DTD/svg11.dtd" >
<svg xmlns="http://www.w3.org/2000/svg">
<metadata>Generated by IcoMoon</metadata>
<defs>
<font id="icomoon" horiz-adv-x="1024">
<font-face units-per-em="1024" ascent="960" descent="-64" />
<missing-glyph horiz-adv-x="1024" />
<glyph unicode="&#x20;" horiz-adv-x="512" d="" />
<glyph unicode="&#xe900;" glyph-name="CBA_Grey" d="M682.394 694.355c11.863 35.177 42.895 61.42 80.698 66.444l25.424 59.508-87.461 87.435-51.556-33.557c-19.589 11.033-40.307 19.621-61.823 25.645l-12.734 60.169h-125.871l-12.734-60.169c-21.516-6.024-42.25-14.613-61.823-25.645l-51.556 33.557-87.387-87.387 24.936-59.404c37.903-5.056 68.347-32.604 80.532-68.153l5.798 12.686c29.58 64.315 94.403 105.871 165.162 105.871 70.129 0 134.725-41.024 164.548-104.548l5.847-12.452zM647.628 509.572l-69.581 17.411v7.912c30.783 21.484 49.565 56.975 49.565 94.782v28.871c0 64.161-50.275 117.855-112.065 119.726-31.661 1.008-61.42-10.621-84.048-32.589-22.645-21.968-35.113-51.427-35.113-82.976v-33.032c0-37.807 18.766-73.283 49.548-94.766v-7.928l-69.564-17.411c-36.831-9.201-62.565-42.154-62.565-80.121v-29.169l46.081 10.242c13.282 2.96 26.855 4.443 40.444 4.443 19.274 0 38.435-2.992 56.782-8.855l75.613-24.177c8.161 0 16.29-1.137 24.129-3.387l103.79-29.645h16.516l33.033 17.395v63.153c0 37.968-25.734 70.92-62.565 80.121zM1024 530.58h-37.113l-55.318-29.105c-6.224 3.436-12.698 6.347-19.683 8.097l-69.581 17.411v7.912c30.786 21.484 49.569 56.975 49.569 94.782v28.871c0 64.161-50.278 117.855-112.069 119.726-31.612 0.927-61.418-10.621-84.047-32.589-22.645-21.968-35.113-51.427-35.113-82.976v-33.032c0-37.807 18.766-73.283 49.548-94.766v-7.928l-66.065-16.54 3.501-0.871c15.298-3.814 28.507-11.895 38.911-22.565l56.686 14.161v52.307l-8.243 4.766c-25.483 14.734-41.306 42.121-41.306 71.436v33.032c0 22.524 8.904 43.589 25.089 59.274 16.166 15.677 37.619 24.129 60.052 23.258 44.12-1.322 80.018-40.218 80.018-86.693v-28.871c0-29.315-15.835-56.702-41.333-71.468l-8.258-4.774 0.059-52.266 82.52-20.613-218.742-115.137h-10.122l-101.54 29.017c-7.984 2.266-16.226 3.193-24.5 3.508l-74.767 23.895c-34.072 10.919-70.951 12.548-105.83 4.823l-94.016-20.895 1.339 4.677 0.613 30.524-87.104 50.815 37.556 9.387v52.307l-8.242 4.766c-25.484 14.734-41.306 42.121-41.306 71.436v33.032c0 22.524 8.903 43.589 25.088 59.274 16.17 15.677 37.67 24.129 60.049 23.258 44.121-1.322 80.024-40.218 80.024-86.693v-28.871c0-29.315-15.838-56.702-41.339-71.468l-8.258-4.774 0.064-52.266 56.67-14.161c10.419 10.669 23.613 18.75 38.911 22.565l3.5 0.871-66.081 16.54v7.912c30.782 21.484 49.565 56.975 49.565 94.782v28.871c0 64.161-50.274 117.855-112.064 119.726-31.629 0.927-61.42-10.621-84.048-32.589-22.645-21.968-35.113-51.427-35.113-82.976v-33.032c0-37.807 18.766-73.283 49.548-94.766v-7.928l-45.387-11.347-82.266 47.976h-54.024v-342.231l162.484-54.155h31.645l3.951 13.839 49.807-29.893c0.815-27.085 22.532-48.874 49.589-49.825 0.952-26.946 22.605-48.596 49.548-49.547 0.952-26.946 22.605-48.596 49.548-49.547 0.984-27.575 23.564-49.737 51.363-49.737 10.323 0 20.443 3.218 28.951 8.953l14.629-12.917c9.169-8.075 20.976-12.551 33.234-12.551h3.057c27.483 0 49.847 22.221 50.194 49.613 27.185 0.344 49.201 22.36 49.548 49.547 27.201 0.351 49.234 22.396 49.548 49.598 27.451 0.644 49.613 23.069 49.613 50.681 0 1.66-0.081 3.291-0.25 4.952l297.54 148.754v241.436zM33.032 530.58h12.040l118.782-69.282-59.935-239.734-70.887 23.637v285.379zM167.839 200.258l-32.508 10.832 58.226 232.877 37.669-21.968v-4.718l-62-217.024h-1.387zM280.774 152.708c0 4.871 1.968 9.648 5.419 13.1l29.033 29.030c3.452 3.452 8.226 5.42 13.097 5.42 10.209 0 18.516-8.309 18.516-18.52 0-4.864-1.968-9.64-5.42-13.093l-29.032-29.030c-3.452-3.452-8.226-5.42-13.097-5.42-10.209 0-18.516 8.302-18.516 18.512zM330.323 103.161c0 4.871 1.968 9.648 5.419 13.1l29.033 29.030c3.452 3.452 8.226 5.42 13.097 5.42 10.209 0 18.516-8.309 18.516-18.52 0-4.871-1.968-9.64-5.42-13.093l-29.032-29.038c-3.452-3.445-8.226-5.413-13.097-5.413-10.209 0-18.516 8.302-18.516 18.512zM379.871 53.614c0 4.871 1.968 9.648 5.419 13.093l29.033 29.038c3.452 3.452 8.226 5.42 13.097 5.42 10.209 0 18.516-8.309 18.516-18.52 0-4.871-1.968-9.648-5.42-13.093l-29.032-29.038c-3.452-3.452-8.226-5.42-13.097-5.42-10.21 0-18.516 8.309-18.516 18.52zM447.936-14.453c-10.21 0-18.516 8.309-18.516 18.52 0 4.871 1.968 9.64 5.419 13.093l29.033 29.030c3.452 3.452 8.226 5.42 13.097 5.42 10.209 0 18.516-8.302 18.516-18.512 0-4.871-1.968-9.648-5.42-13.1l-29.032-29.030c-3.452-3.452-8.226-5.42-13.097-5.42zM527.807-30.969h-3.057c-4.21 0-8.242 1.536-11.379 4.315l-12.355 10.898 12.404 12.398c4.427 4.432 7.863 9.699 10.403 15.345l15.016-12.5c3.927-3.269 6.194-8.090 6.194-13.232 0-9.501-7.726-17.225-17.226-17.225v0zM675.92 117.68h-2.855c-4.146 0-8.193 1.463-11.363 4.125l-89.564 74.635-21.162-25.381 86.976-72.47c3.911-3.277 6.177-8.097 6.177-13.232 0-9.501-7.725-17.232-17.225-17.232h-3.605c-4.008 0-7.927 1.426-11.016 4.001l-89.71 74.752-21.162-25.388 86.976-72.477c3.927-3.248 6.193-8.068 6.193-13.21 0-9.494-7.725-17.225-17.225-17.225-6.339 0-12.516 2.253-17.379 6.29l-36.863 30.727c-8.121 16.596-24.806 28.167-44.347 28.862-0.952 26.946-22.605 48.596-49.548 49.547-0.952 26.946-22.605 48.596-49.548 49.554-0.968 27.568-23.548 49.731-51.346 49.731-13.573 0-26.855-5.501-36.452-15.097l-29.032-29.030c-1.734-1.733-3.169-3.701-4.629-5.654l-50.734 30.442 44.476 155.663 111.5 24.79c29.25 6.54 60.088 5.121 88.613-4.008l24.331-7.782-82.484-41.242c-18.847-9.443-30.557-28.404-30.557-49.484v-3.266c0-30.509 24.822-55.331 55.331-55.331 10.024 0 19.887 2.726 28.459 7.895l61.501 36.879c12.355 7.404 28.935 5.782 39.605-3.814l139.549-125.587c3.734-3.387 5.878-8.192 5.878-13.224 0-9.801-7.959-17.759-17.758-17.759v0zM990.969 309.564l-278.251-139.134c-0.903 0.958-1.847 1.865-2.839 2.757l-139.524 125.586c-12.226 11.032-28.032 17.096-44.5 17.096-12.040 0-23.863-3.274-34.218-9.484l-61.524-36.895c-3.452-2.081-7.395-3.17-11.427-3.17-12.306 0-22.298 9.992-22.298 22.299v3.266c0 8.508 4.726 16.137 12.322 19.936l92.129 46.064c15.766 7.896 34.484 9.661 51.476 4.775l103.79-29.646 25.137-0.629 309.726 163.016v-185.839z" />
<glyph unicode="&#xe901;" glyph-name="CBA_Yellow" d="M682.394 694.355c11.863 35.177 42.895 61.42 80.698 66.444l25.424 59.508-87.461 87.435-51.556-33.557c-19.589 11.033-40.307 19.621-61.823 25.645l-12.734 60.169h-125.871l-12.734-60.169c-21.516-6.024-42.25-14.613-61.823-25.645l-51.556 33.557-87.387-87.387 24.936-59.404c37.903-5.056 68.347-32.604 80.532-68.153l5.798 12.686c29.58 64.315 94.403 105.871 165.162 105.871 70.129 0 134.725-41.024 164.548-104.548l5.847-12.452zM647.628 509.572l-69.581 17.411v7.912c30.783 21.484 49.565 56.975 49.565 94.782v28.871c0 64.161-50.275 117.855-112.065 119.726-31.661 1.008-61.42-10.621-84.048-32.589-22.645-21.968-35.113-51.427-35.113-82.976v-33.032c0-37.807 18.766-73.283 49.548-94.766v-7.928l-69.564-17.411c-36.831-9.201-62.565-42.154-62.565-80.121v-29.169l46.081 10.242c13.282 2.96 26.855 4.443 40.444 4.443 19.274 0 38.435-2.992 56.782-8.855l75.613-24.177c8.161 0 16.29-1.137 24.129-3.387l103.79-29.645h16.516l33.033 17.395v63.153c0 37.968-25.734 70.92-62.565 80.121zM1024 530.58h-37.113l-55.318-29.105c-6.224 3.436-12.698 6.347-19.683 8.097l-69.581 17.411v7.912c30.786 21.484 49.569 56.975 49.569 94.782v28.871c0 64.161-50.278 117.855-112.069 119.726-31.612 0.927-61.418-10.621-84.047-32.589-22.645-21.968-35.113-51.427-35.113-82.976v-33.032c0-37.807 18.766-73.283 49.548-94.766v-7.928l-66.065-16.54 3.501-0.871c15.298-3.814 28.507-11.895 38.911-22.565l56.686 14.161v52.307l-8.243 4.766c-25.483 14.734-41.306 42.121-41.306 71.436v33.032c0 22.524 8.904 43.589 25.089 59.274 16.166 15.677 37.619 24.129 60.052 23.258 44.12-1.322 80.018-40.218 80.018-86.693v-28.871c0-29.315-15.835-56.702-41.333-71.468l-8.258-4.774 0.059-52.266 82.52-20.613-218.742-115.137h-10.122l-101.54 29.017c-7.984 2.266-16.226 3.193-24.5 3.508l-74.767 23.895c-34.072 10.919-70.951 12.548-105.83 4.823l-94.016-20.895 1.339 4.677 0.613 30.524-87.104 50.815 37.556 9.387v52.307l-8.242 4.766c-25.484 14.734-41.306 42.121-41.306 71.436v33.032c0 22.524 8.903 43.589 25.088 59.274 16.17 15.677 37.67 24.129 60.049 23.258 44.121-1.322 80.024-40.218 80.024-86.693v-28.871c0-29.315-15.838-56.702-41.339-71.468l-8.258-4.774 0.064-52.266 56.67-14.161c10.419 10.669 23.613 18.75 38.911 22.565l3.5 0.871-66.081 16.54v7.912c30.782 21.484 49.565 56.975 49.565 94.782v28.871c0 64.161-50.274 117.855-112.064 119.726-31.629 0.927-61.42-10.621-84.048-32.589-22.645-21.968-35.113-51.427-35.113-82.976v-33.032c0-37.807 18.766-73.283 49.548-94.766v-7.928l-45.387-11.347-82.266 47.976h-54.024v-342.231l162.484-54.155h31.645l3.951 13.839 49.807-29.893c0.815-27.085 22.532-48.874 49.589-49.825 0.952-26.946 22.605-48.596 49.548-49.547 0.952-26.946 22.605-48.596 49.548-49.547 0.984-27.575 23.564-49.737 51.363-49.737 10.323 0 20.443 3.218 28.951 8.953l14.629-12.917c9.169-8.075 20.976-12.551 33.234-12.551h3.057c27.483 0 49.847 22.221 50.194 49.613 27.185 0.344 49.201 22.36 49.548 49.547 27.201 0.351 49.234 22.396 49.548 49.598 27.451 0.644 49.613 23.069 49.613 50.681 0 1.66-0.081 3.291-0.25 4.952l297.54 148.754v241.436zM33.032 530.58h12.040l118.782-69.282-59.935-239.734-70.887 23.637v285.379zM167.839 200.258l-32.508 10.832 58.226 232.877 37.669-21.968v-4.718l-62-217.024h-1.387zM280.774 152.708c0 4.871 1.968 9.648 5.419 13.1l29.033 29.030c3.452 3.452 8.226 5.42 13.097 5.42 10.209 0 18.516-8.309 18.516-18.52 0-4.864-1.968-9.64-5.42-13.093l-29.032-29.030c-3.452-3.452-8.226-5.42-13.097-5.42-10.209 0-18.516 8.302-18.516 18.512zM330.323 103.161c0 4.871 1.968 9.648 5.419 13.1l29.033 29.030c3.452 3.452 8.226 5.42 13.097 5.42 10.209 0 18.516-8.309 18.516-18.52 0-4.871-1.968-9.64-5.42-13.093l-29.032-29.038c-3.452-3.445-8.226-5.413-13.097-5.413-10.209 0-18.516 8.302-18.516 18.512zM379.871 53.614c0 4.871 1.968 9.648 5.419 13.093l29.033 29.038c3.452 3.452 8.226 5.42 13.097 5.42 10.209 0 18.516-8.309 18.516-18.52 0-4.871-1.968-9.648-5.42-13.093l-29.032-29.038c-3.452-3.452-8.226-5.42-13.097-5.42-10.21 0-18.516 8.309-18.516 18.52zM447.936-14.453c-10.21 0-18.516 8.309-18.516 18.52 0 4.871 1.968 9.64 5.419 13.093l29.033 29.030c3.452 3.452 8.226 5.42 13.097 5.42 10.209 0 18.516-8.302 18.516-18.512 0-4.871-1.968-9.648-5.42-13.1l-29.032-29.030c-3.452-3.452-8.226-5.42-13.097-5.42zM527.807-30.969h-3.057c-4.21 0-8.242 1.536-11.379 4.315l-12.355 10.898 12.404 12.398c4.427 4.432 7.863 9.699 10.403 15.345l15.016-12.5c3.927-3.269 6.194-8.090 6.194-13.232 0-9.501-7.726-17.225-17.226-17.225v0zM675.92 117.68h-2.855c-4.146 0-8.193 1.463-11.363 4.125l-89.564 74.635-21.162-25.381 86.976-72.47c3.911-3.277 6.177-8.097 6.177-13.232 0-9.501-7.725-17.232-17.225-17.232h-3.605c-4.008 0-7.927 1.426-11.016 4.001l-89.71 74.752-21.162-25.388 86.976-72.477c3.927-3.248 6.193-8.068 6.193-13.21 0-9.494-7.725-17.225-17.225-17.225-6.339 0-12.516 2.253-17.379 6.29l-36.863 30.727c-8.121 16.596-24.806 28.167-44.347 28.862-0.952 26.946-22.605 48.596-49.548 49.547-0.952 26.946-22.605 48.596-49.548 49.554-0.968 27.568-23.548 49.731-51.346 49.731-13.573 0-26.855-5.501-36.452-15.097l-29.032-29.030c-1.734-1.733-3.169-3.701-4.629-5.654l-50.734 30.442 44.476 155.663 111.5 24.79c29.25 6.54 60.088 5.121 88.613-4.008l24.331-7.782-82.484-41.242c-18.847-9.443-30.557-28.404-30.557-49.484v-3.266c0-30.509 24.822-55.331 55.331-55.331 10.024 0 19.887 2.726 28.459 7.895l61.501 36.879c12.355 7.404 28.935 5.782 39.605-3.814l139.549-125.587c3.734-3.387 5.878-8.192 5.878-13.224 0-9.801-7.959-17.759-17.758-17.759v0zM990.969 309.564l-278.251-139.134c-0.903 0.958-1.847 1.865-2.839 2.757l-139.524 125.586c-12.226 11.032-28.032 17.096-44.5 17.096-12.040 0-23.863-3.274-34.218-9.484l-61.524-36.895c-3.452-2.081-7.395-3.17-11.427-3.17-12.306 0-22.298 9.992-22.298 22.299v3.266c0 8.508 4.726 16.137 12.322 19.936l92.129 46.064c15.766 7.896 34.484 9.661 51.476 4.775l103.79-29.646 25.137-0.629 309.726 163.016v-185.839z" />
<glyph unicode="&#xe902;" glyph-name="DropZone_Grey" d="M555.946 887.808l-468.906 71.253c-21.76 3.413-43.947-2.56-60.587-16.64-16.64-14.507-26.453-35.413-26.453-57.173v-898.988c0-23.468 19.2-42.664 42.667-42.664h138.667v223.999c0 41.386 33.28 74.666 74.666 74.666h106.666c41.387 0 74.667-33.28 74.667-74.666v-223.999h181.333v870.398c0 36.694-26.453 67.84-62.72 73.814zM234.666 338.262h-64c-17.664 0-32 14.336-32 32s14.336 32 32 32h64c17.664 0 32-14.336 32-32s-14.336-32-32-32zM234.666 466.262h-64c-17.664 0-32 14.336-32 32s14.336 32 32 32h64c17.664 0 32-14.336 32-32s-14.336-32-32-32zM234.666 594.262h-64c-17.664 0-32 14.336-32 32s14.336 32 32 32h64c17.664 0 32-14.336 32-32s-14.336-32-32-32zM234.666 722.262h-64c-17.664 0-32 14.336-32 32s14.336 32 32 32h64c17.664 0 32-14.336 32-32s-14.336-32-32-32zM448 338.262h-64c-17.664 0-32 14.336-32 32s14.336 32 32 32h64c17.664 0 32-14.336 32-32s-14.336-32-32-32zM448 466.262h-64c-17.664 0-32 14.336-32 32s14.336 32 32 32h64c17.664 0 32-14.336 32-32s-14.336-32-32-32zM448 594.262h-64c-17.664 0-32 14.336-32 32s14.336 32 32 32h64c17.664 0 32-14.336 32-32s-14.336-32-32-32zM448 722.262h-64c-17.664 0-32 14.336-32 32s14.336 32 32 32h64c17.664 0 32-14.336 32-32s-14.336-32-32-32zM965.12 505.001l-303.786 63.616v-625.022h287.998c41.174 0 74.668 33.494 74.668 74.668v413.777c0 35.242-24.017 65.237-58.88 72.96zM864 71.593h-64c-17.664 0-32 14.336-32 32s14.336 32 32 32h64c17.664 0 32-14.336 32-32s-14.336-32-32-32zM864 199.593h-64c-17.664 0-32 14.336-32 32s14.336 32 32 32h64c17.664 0 32-14.336 32-32s-14.336-32-32-32zM864 327.593h-64c-17.664 0-32 14.336-32 32s14.336 32 32 32h64c17.664 0 32-14.336 32-32s-14.336-32-32-32z" />
<glyph unicode="&#xe903;" glyph-name="DropZone_Yellow" d="M555.946 887.808l-468.906 71.253c-21.76 3.413-43.947-2.56-60.587-16.64-16.64-14.507-26.453-35.413-26.453-57.173v-898.988c0-23.468 19.2-42.664 42.667-42.664h138.667v223.999c0 41.386 33.28 74.666 74.666 74.666h106.666c41.387 0 74.667-33.28 74.667-74.666v-223.999h181.333v870.398c0 36.694-26.453 67.84-62.72 73.814zM234.666 338.262h-64c-17.664 0-32 14.336-32 32s14.336 32 32 32h64c17.664 0 32-14.336 32-32s-14.336-32-32-32zM234.666 466.262h-64c-17.664 0-32 14.336-32 32s14.336 32 32 32h64c17.664 0 32-14.336 32-32s-14.336-32-32-32zM234.666 594.262h-64c-17.664 0-32 14.336-32 32s14.336 32 32 32h64c17.664 0 32-14.336 32-32s-14.336-32-32-32zM234.666 722.262h-64c-17.664 0-32 14.336-32 32s14.336 32 32 32h64c17.664 0 32-14.336 32-32s-14.336-32-32-32zM448 338.262h-64c-17.664 0-32 14.336-32 32s14.336 32 32 32h64c17.664 0 32-14.336 32-32s-14.336-32-32-32zM448 466.262h-64c-17.664 0-32 14.336-32 32s14.336 32 32 32h64c17.664 0 32-14.336 32-32s-14.336-32-32-32zM448 594.262h-64c-17.664 0-32 14.336-32 32s14.336 32 32 32h64c17.664 0 32-14.336 32-32s-14.336-32-32-32zM448 722.262h-64c-17.664 0-32 14.336-32 32s14.336 32 32 32h64c17.664 0 32-14.336 32-32s-14.336-32-32-32zM965.12 505.001l-303.786 63.616v-625.022h287.998c41.174 0 74.668 33.494 74.668 74.668v413.777c0 35.242-24.017 65.237-58.88 72.96zM864 71.593h-64c-17.664 0-32 14.336-32 32s14.336 32 32 32h64c17.664 0 32-14.336 32-32s-14.336-32-32-32zM864 199.593h-64c-17.664 0-32 14.336-32 32s14.336 32 32 32h64c17.664 0 32-14.336 32-32s-14.336-32-32-32zM864 327.593h-64c-17.664 0-32 14.336-32 32s14.336 32 32 32h64c17.664 0 32-14.336 32-32s-14.336-32-32-32z" />
<glyph unicode="&#xe904;" glyph-name="e-Shop_Grey" horiz-adv-x="951" d="M848.603 875.747h-682.127c-2.054 0-3.929-0.782-5.854-1.369l-16.766 55.767c-5.332 17.735-21.493 29.855-39.809 29.855h-83.237c-11.493 0-20.81-9.431-20.81-21.064v-42.126c0-11.633 9.318-21.064 20.81-21.064h52.411l130.020-432.474-48.56-57.343c-19.193-22.663-27.835-53.891-19.002-82.369 11.298-36.423 43.056-59.709 79.673-59.709h596.226c11.491 0 20.809 9.431 20.809 21.064v42.126c0 11.633-9.318 21.064-20.809 21.064h-596.228l65.966 77.897c1.658 1.959 2.877 4.171 4.136 6.357h403.257c32.255 0 61.605 18.854 75.341 48.394l145.211 312.334c4.169 8.989 6.363 18.964 6.363 28.86v5.966c0 37.462-30.011 67.834-67.021 67.834zM249.716 33.214c45.972 0 83.239 37.72 83.239 84.253s-37.267 84.253-83.239 84.253c-45.972 0-83.239-37.72-83.239-84.253s37.268-84.253 83.239-84.253zM749.144 33.214c45.978 0 83.244 37.72 83.244 84.253s-37.266 84.253-83.244 84.253c-45.969 0-83.237-37.72-83.237-84.253s37.268-84.253 83.237-84.253z" />
<glyph unicode="&#xe905;" glyph-name="Arrival_White" d="M1020.77 508.625c-6.544 22.574-22.123 41.435-43.874 53.099-9.249 4.972-19.293 8.414-29.836 10.252l-733.523 126.972-66.499 122.136c-4.792 8.802-15.708 13.038-25.791 9.846l-63.999-19.807c-9.458-2.922-15.458-11.548-14.458-20.756l21.334-198.081c0.876-8.222 7.166-15.068 15.792-17.178l367.117-89.718-183.996-153.726c-6.084-5.087-8.458-12.958-6.208-20.252 2.292-7.294 8.876-12.73 16.958-14.006l126.496-19.81c1.166-0.172 2.376-0.27 3.542-0.27 3.666 0 7.334 0.889 10.542 2.593l293.287 154.829 201.91-36.543c39.875-7.601 80.165 9.304 101.748 44.065 12.581 20.219 15.956 43.799 9.458 66.354zM703.991 149.332h-682.657c-11.792 0-21.334-9.542-21.334-21.336v-42.664c0-11.795 9.542-21.336 21.334-21.336h682.657c11.79 0 21.332 9.542 21.332 21.336v42.664c0 11.795-9.542 21.336-21.332 21.336z" />
<glyph unicode="&#xe906;" glyph-name="Flights_Grey" horiz-adv-x="967" d="M210.162 422.69h-69.948c19.887-39.054 54.91-68.642 97.566-81.385-10.417 20.554-20.866 47.838-27.617 81.385zM243.157 422.69c9.133-41.068 24.211-70.547 35.788-88.354 1.601-0.051 3.091-0.472 4.7-0.472s3.099 0.421 4.692 0.472c11.617 17.846 26.679 47.314 35.794 88.354h-80.973zM439.419 535.74h-77.298c1.347-12.791 2.277-26.096 2.277-40.377 0-14.289-0.963-27.577-2.326-40.376h77.347c3.376 12.981 5.734 26.354 5.734 40.376s-2.358 27.395-5.734 40.377zM329.464 649.445c10.655-20.875 21.089-47.927 27.767-81.399h69.847c-19.897 39.067-54.936 68.663-97.614 81.399zM288.393 656.39c-1.617 0.047-3.123 0.481-4.746 0.481-1.609 0-3.107-0.426-4.7-0.473-12.066-18.476-26.86-47.881-35.826-88.356h81.060c-8.929 40.338-23.667 69.753-35.788 88.348zM329.568 535.74h-91.832c-1.476-12.707-2.54-25.952-2.54-40.377 0-14.416 1.080-27.664 2.572-40.376h91.77c1.482 12.712 2.564 25.958 2.564 40.376-0.002 14.425-1.068 27.668-2.534 40.377zM140.216 568.046h69.872c6.687 33.487 17.128 60.571 27.743 81.399-42.682-12.745-77.719-42.333-97.615-81.399zM202.893 495.363c0 14.281 0.939 27.585 2.288 40.377h-77.307c-3.376-12.981-5.733-26.354-5.733-40.377s2.357-27.395 5.733-40.376h77.355c-1.373 12.799-2.336 26.088-2.336 40.376zM357.134 422.69c-6.733-33.547-17.174-60.814-27.607-81.385 42.647 12.754 77.662 42.337 97.549 81.385h-69.942zM849.471 857.463l-374.409 100.321c-34.462 9.234-69.886-11.219-79.12-45.68l-33.766-126.027h147.579c19.944 0 37.555-9.228 49.399-23.43 12.284-3.291 35.273-9.45 56.362-15.099l106.337 99.144 29.77-7.978-66.64-109.782c19.558-5.241 39.515-10.586 52.599-14.095l40.402 23.745 19.849-5.317-31.334-47.446 3.408-56.757-19.849 5.318-23.114 40.76c-13.084 3.509-33.041 8.855-52.599 14.095l2.822-128.397-29.77 7.979-42.519 139.030c-10.388 2.782-20.753 5.56-30.521 8.176v-388.49l33.274 126.562 31.198-8.362-64.472-245.267v-60.416c0-35.675-28.925-64.603-64.601-64.603h-111.429l225.421-60.399c34.463-9.233 69.888 11.218 79.121 45.682l104.562 390.21-31.283 8.148 8.391 31.197 31.249-8.14 79.366 296.196c9.233 34.463-11.224 69.887-45.682 79.124zM620.129 500.901l-31.198 8.36 8.391 31.197 31.198-8.36-8.391-31.197zM659.684 523.724l31.226-8.36-8.323-31.197-31.232 8.36 8.329 31.197zM640.466 77.449l-31.198 8.363 91.955 343.203 31.198-8.36-91.955-343.206zM744.943 467.449l-31.192 8.36 8.385 31.197 31.198-8.36-8.391-31.197zM509.753 753.774h-484.517v-646.026h484.517c17.814 0 32.302 14.495 32.302 32.302v581.423c0 17.81-14.487 32.302-32.302 32.302zM445.151 172.351h-323.011v32.302h323.011v-32.302zM283.645 301.557c-107.036 0-193.807 86.773-193.807 193.808s86.771 193.807 193.807 193.807c107.036 0 193.807-86.771 193.807-193.807s-86.769-193.808-193.807-193.808z" />
<glyph unicode="&#xe907;" glyph-name="Flights_yellow" horiz-adv-x="967" d="M210.162 422.69h-69.948c19.887-39.054 54.91-68.642 97.566-81.385-10.417 20.554-20.866 47.838-27.617 81.385zM243.157 422.69c9.133-41.068 24.211-70.547 35.788-88.354 1.601-0.051 3.091-0.472 4.7-0.472s3.099 0.421 4.692 0.472c11.617 17.846 26.679 47.314 35.794 88.354h-80.973zM439.419 535.74h-77.298c1.347-12.791 2.277-26.096 2.277-40.377 0-14.289-0.963-27.577-2.326-40.376h77.347c3.376 12.981 5.734 26.354 5.734 40.376s-2.358 27.395-5.734 40.377zM329.464 649.445c10.655-20.875 21.089-47.927 27.767-81.399h69.847c-19.897 39.066-54.936 68.662-97.614 81.399zM288.393 656.39c-1.617 0.047-3.123 0.481-4.746 0.481-1.609 0-3.107-0.426-4.7-0.473-12.066-18.476-26.86-47.881-35.826-88.356h81.060c-8.929 40.338-23.667 69.753-35.788 88.348zM329.568 535.74h-91.832c-1.476-12.707-2.54-25.952-2.54-40.377 0-14.416 1.080-27.664 2.572-40.376h91.77c1.482 12.712 2.564 25.958 2.564 40.376-0.002 14.425-1.068 27.668-2.534 40.377zM140.216 568.046h69.872c6.687 33.486 17.128 60.57 27.743 81.399-42.682-12.745-77.719-42.333-97.615-81.399zM202.893 495.363c0 14.281 0.939 27.585 2.288 40.377h-77.307c-3.376-12.981-5.733-26.354-5.733-40.377s2.357-27.395 5.733-40.376h77.355c-1.373 12.799-2.336 26.088-2.336 40.376zM357.134 422.69c-6.733-33.547-17.174-60.814-27.607-81.385 42.647 12.754 77.662 42.337 97.549 81.385h-69.942zM849.471 857.463l-374.409 100.321c-34.462 9.234-69.886-11.219-79.12-45.68l-33.766-126.027h147.579c19.944 0 37.555-9.228 49.399-23.43 12.284-3.291 35.273-9.45 56.362-15.099l106.337 99.144 29.77-7.978-66.64-109.782c19.558-5.241 39.515-10.586 52.599-14.095l40.402 23.745 19.849-5.317-31.334-47.446 3.408-56.757-19.849 5.318-23.114 40.76c-13.084 3.509-33.041 8.855-52.599 14.095l2.822-128.397-29.77 7.979-42.519 139.030c-10.388 2.782-20.753 5.56-30.521 8.176v-388.49l33.274 126.562 31.198-8.362-64.472-245.267v-60.416c0-35.675-28.925-64.603-64.601-64.603h-111.429l225.421-60.399c34.463-9.233 69.888 11.218 79.121 45.682l104.562 390.21-31.283 8.148 8.391 31.197 31.249-8.14 79.366 296.196c9.233 34.463-11.224 69.887-45.682 79.124zM620.129 500.901l-31.198 8.36 8.391 31.197 31.198-8.36-8.391-31.197zM659.684 523.724l31.226-8.36-8.323-31.197-31.232 8.36 8.329 31.197zM640.466 77.449l-31.198 8.363 91.955 343.203 31.198-8.36-91.955-343.206zM744.943 467.449l-31.192 8.36 8.385 31.197 31.198-8.36-8.391-31.197zM509.753 753.774h-484.517v-646.026h484.517c17.814 0 32.302 14.495 32.302 32.302v581.423c0 17.81-14.487 32.302-32.302 32.302zM445.151 172.351h-323.011v32.302h323.011v-32.302zM283.645 301.557c-107.036 0-193.807 86.773-193.807 193.808s86.771 193.807 193.807 193.807c107.036 0 193.807-86.771 193.807-193.807s-86.769-193.808-193.807-193.808z" />
<glyph unicode="&#xe908;" glyph-name="Purchaser_Grey" d="M303.97 891.733h-33.774v-34.133h33.774v34.133zM472.843 891.733h-135.099v-34.133h135.099v34.133zM658.602 226.136c0-47.148-37.786-85.336-84.436-85.336h-308.403l58.050 101.546c-1.9-5.333-2.744-10.666-2.956-16.211 0-28.379 22.587-51.2 50.662-51.2h67.55c28.074 0 50.662 22.821 50.662 51.2 0 28.371-22.587 51.198-50.662 51.198h-67.55c-16.254 0-31.664-8.107-41.163-21.547 14.566 34.56-1.477 74.667-35.674 89.387-31.452 13.44-67.76 1.066-84.647-28.587l-57.416-100.479c-0.422 3.408-0.633 6.824-0.633 10.24v614.186c0 47.146 37.786 85.333 84.436 85.333h337.745c30.186 0 58.050-16.213 73.038-42.667l29.13 17.067c-20.898 36.907-59.949 59.733-102.167 59.733h-337.745c-65.227 0-118.211-53.547-118.211-119.466v-329.387c-10.765-5.12-19.42-13.653-24.486-24.533l-76.626-168.107c-11.399-24.746-17.098-51.626-17.098-78.72v-303.786h33.774v3.416h236.421v-3.204h33.774v74.028c0 21.76-5.91 42.884-16.887 61.652l-20.686 34.984h307.77c65.227 0 118.211 53.548 118.211 119.472v85.332h-33.774v-85.544zM371.519 243.2h67.55c9.288 0 16.887-7.68 16.887-17.064 0-9.392-7.6-17.072-16.887-17.072h-67.55c-9.288 0-16.887 7.68-16.887 17.072 0 9.384 7.6 17.064 16.887 17.064zM203.491 738.134c-25.753-39.466-15.198-92.586 23.853-118.614s91.614-15.36 117.366 24.107c18.787 28.586 18.787 65.92 0 94.506l25.964 26.24-23.853 24.106-25.964-26.24c-39.052 26.24-91.402 15.36-117.366-24.106zM274.417 742.4c7.6 0 14.988-1.706 21.742-5.12l-50.451-50.986 23.853-24.106 50.451 50.986c3.377-6.826 5.066-14.294 5.066-21.974 0-28.373-22.587-51.2-50.662-51.2s-50.662 22.827-50.662 51.2c0 28.374 22.587 51.2 50.662 51.2zM455.956 686.934h-67.549v-34.134h67.549v34.134zM455.956 578.134h-266.397v-34.134h266.397v34.134zM706.098 652.374c0-6.4 1.9-11.093 5.489-14.506 3.799-3.414 8.654-5.76 14.987-7.466v42.88c-5.277-0.64-9.921-2.56-14.143-5.974s-6.333-8.32-6.333-14.934zM762.039 573.867c-4.016 3.413-9.077 6.186-15.411 8.106v-46.72c6.546 0.426 11.82 2.56 15.623 6.614 3.796 4.053 5.698 9.6 5.698 16.426 0.212 6.826-1.902 12.16-5.91 15.574zM975.024 759.68c-85.489 123.733-253.938 153.813-376.16 67.413-103.012-72.746-142.697-207.573-96.046-325.333l-56.994-97.706c-3.378-5.76-3.166-13.014 0.633-18.347 3.799-5.546 10.555-8.106 17.098-7.040l110.189 20.906c37.364-33.92 83.592-56.533 132.988-65.279 15.62-2.774 31.244-4.054 47.072-4.054 149.241 0 270.197 122.24 270.197 273.066-0.212 55.894-17.101 110.506-48.976 156.374zM808.689 532.693c-3.803-7.893-8.865-14.72-15.199-20.053s-13.509-9.387-21.745-12.16c-8.016-2.774-16.464-4.267-25.117-4.48v-21.546h-21.743v21.546c-12.665 0.426-25.541 2.773-38.418 7.253s-24.275 11.094-33.986 20.054c5.067 5.334 10.132 10.666 15.41 16.214 5.067 5.333 10.344 10.88 15.41 16.426 2.533-2.986 5.489-5.76 9.077-8.106 3.588-2.56 7.177-4.694 10.766-6.4 3.799-1.706 7.388-3.2 11.187-4.267s7.178-1.706 10.555-1.706v51.84c-8.444 2.347-16.464 5.12-24.064 7.894-7.81 2.986-14.566 6.826-20.265 11.52-5.911 4.693-10.555 10.453-14.143 17.28s-5.277 15.146-5.277 24.96c0 9.6 1.9 18.346 5.911 25.813 3.8 7.68 9.077 14.080 15.198 19.2 6.333 5.12 13.299 9.174 21.109 12.16 7.81 2.774 15.621 4.48 23.22 4.907v20.693h21.32v-20.053c11.191-0.427 22.587-2.347 34.194-5.974 11.615-3.626 22.17-9.174 31.247-16.64-9.501-11.094-19.003-21.76-28.496-32.214-4.857 4.907-10.767 8.747-17.525 11.52-6.751 2.774-13.297 4.267-19.632 4.48v-47.36c7.6-2.346 15.411-5.12 23.223-7.893 7.812-2.987 14.987-6.827 21.321-11.734 6.539-4.906 11.608-10.88 15.828-18.134s6.122-16 6.122-26.666c0.212-10.88-1.69-20.266-5.486-28.374z" />
<glyph unicode="&#xe909;" glyph-name="Purchaser_Yellow" d="M303.97 891.733h-33.774v-34.133h33.774v34.133zM472.843 891.733h-135.099v-34.133h135.099v34.133zM658.602 226.136c0-47.148-37.786-85.336-84.436-85.336h-308.403l58.050 101.546c-1.9-5.333-2.744-10.666-2.956-16.211 0-28.379 22.587-51.2 50.662-51.2h67.55c28.074 0 50.662 22.821 50.662 51.2 0 28.371-22.587 51.198-50.662 51.198h-67.55c-16.254 0-31.664-8.107-41.163-21.547 14.566 34.56-1.477 74.667-35.674 89.387-31.452 13.44-67.76 1.066-84.647-28.587l-57.416-100.479c-0.422 3.408-0.633 6.824-0.633 10.24v614.186c0 47.146 37.786 85.333 84.436 85.333h337.745c30.186 0 58.050-16.213 73.038-42.667l29.13 17.067c-20.898 36.907-59.949 59.733-102.167 59.733h-337.745c-65.227 0-118.211-53.547-118.211-119.466v-329.387c-10.765-5.12-19.42-13.653-24.486-24.533l-76.626-168.107c-11.399-24.746-17.098-51.626-17.098-78.72v-303.786h33.774v3.416h236.421v-3.204h33.774v74.028c0 21.76-5.91 42.884-16.887 61.652l-20.686 34.984h307.77c65.227 0 118.211 53.548 118.211 119.472v85.332h-33.774v-85.544zM371.519 243.2h67.55c9.288 0 16.887-7.68 16.887-17.064 0-9.392-7.6-17.072-16.887-17.072h-67.55c-9.288 0-16.887 7.68-16.887 17.072 0 9.384 7.6 17.064 16.887 17.064zM203.491 738.134c-25.753-39.466-15.198-92.586 23.853-118.614s91.614-15.36 117.366 24.107c18.787 28.586 18.787 65.92 0 94.506l25.964 26.24-23.853 24.106-25.964-26.24c-39.052 26.24-91.402 15.36-117.366-24.106zM274.417 742.4c7.6 0 14.988-1.706 21.742-5.12l-50.451-50.986 23.853-24.106 50.451 50.986c3.377-6.826 5.066-14.294 5.066-21.974 0-28.373-22.587-51.2-50.662-51.2s-50.662 22.827-50.662 51.2c0 28.374 22.587 51.2 50.662 51.2zM455.956 686.934h-67.549v-34.134h67.549v34.134zM455.956 578.134h-266.397v-34.134h266.397v34.134zM706.098 652.374c0-6.4 1.9-11.093 5.489-14.506 3.799-3.414 8.654-5.76 14.987-7.466v42.88c-5.277-0.64-9.921-2.56-14.143-5.974s-6.333-8.32-6.333-14.934zM762.039 573.867c-4.016 3.413-9.077 6.186-15.411 8.106v-46.72c6.546 0.426 11.82 2.56 15.623 6.614 3.796 4.053 5.698 9.6 5.698 16.426 0.212 6.826-1.902 12.16-5.91 15.574zM975.024 759.68c-85.489 123.733-253.938 153.813-376.16 67.413-103.012-72.746-142.697-207.573-96.046-325.333l-56.994-97.706c-3.378-5.76-3.166-13.014 0.633-18.347 3.799-5.546 10.555-8.106 17.098-7.040l110.189 20.906c37.364-33.92 83.592-56.533 132.988-65.279 15.62-2.774 31.244-4.054 47.072-4.054 149.241 0 270.197 122.24 270.197 273.066-0.212 55.894-17.101 110.506-48.976 156.374zM808.689 532.693c-3.803-7.893-8.865-14.72-15.199-20.053s-13.509-9.387-21.745-12.16c-8.016-2.774-16.464-4.267-25.117-4.48v-21.546h-21.743v21.546c-12.665 0.426-25.541 2.773-38.418 7.253s-24.275 11.094-33.986 20.054c5.067 5.334 10.132 10.666 15.41 16.214 5.067 5.333 10.344 10.88 15.41 16.426 2.533-2.986 5.489-5.76 9.077-8.106 3.588-2.56 7.177-4.694 10.766-6.4 3.799-1.706 7.388-3.2 11.187-4.267s7.178-1.706 10.555-1.706v51.84c-8.444 2.347-16.464 5.12-24.064 7.894-7.81 2.986-14.566 6.826-20.265 11.52-5.911 4.693-10.555 10.453-14.143 17.28s-5.277 15.146-5.277 24.96c0 9.6 1.9 18.346 5.911 25.813 3.8 7.68 9.077 14.080 15.198 19.2 6.333 5.12 13.299 9.174 21.109 12.16 7.81 2.774 15.621 4.48 23.22 4.907v20.693h21.32v-20.053c11.191-0.427 22.587-2.347 34.194-5.974 11.615-3.626 22.17-9.174 31.247-16.64-9.501-11.094-19.003-21.76-28.496-32.214-4.857 4.907-10.767 8.747-17.525 11.52-6.751 2.774-13.297 4.267-19.632 4.48v-47.36c7.6-2.346 15.411-5.12 23.223-7.893 7.812-2.987 14.987-6.827 21.321-11.734 6.539-4.906 11.608-10.88 15.828-18.134s6.122-16 6.122-26.666c0.212-10.88-1.69-20.266-5.486-28.374z" />
<glyph unicode="&#xe90a;" glyph-name="Qurier_Grey" d="M154.467 682.123c9.807-2.916 17.33-10.817 19.763-20.755l21.636-88.36 47.737-63.66 32.327 116.398c3.535 12.726 7.866 11.485 74.572 79.856 5.399 5.401 12.724 8.436 20.362 8.436h36.835l22.232 66.707c6.758 20.271 32.546 26.392 47.679 11.257l57.59-57.6c4.861-4.86 7.824-11.301 8.35-18.156l8.133-105.732 56.828-18.947 138.824 70.563c-36.819 170.064-188.41 297.868-369.304 297.868-160.45 0-297.843-100.55-352.551-241.948 68.213-17.209 44.41-10.787 128.987-35.929zM745.805 495.359c8.179 34.798 11.43 70.381 9.594 106.257l-131.53-66.854c-6.87-3.489-14.845-4.084-22.151-1.647l-86.384 28.8c-10.992 3.665-18.716 13.561-19.605 25.114l-8.78 114.178-17.113 17.115-14.062-42.192c-3.921-11.76-14.924-19.693-27.318-19.693h-45.663l-53.399-53.406-45.964-165.5c-6.388-22.993-36.463-28.661-50.782-9.571-90.557 122.077-88.84 115.512-91.317 125.627l-19.106 78.035-54.65 16.25-58.693 14.97c-54.065-247.385 146.159-476.773 398.255-457.58v203.699c0 47.64 38.751 86.399 86.385 86.399h252.284zM381.917 424.725l-7.678-42.24c-2.527-13.907-14.65-23.652-28.297-23.652-18.056 0-31.566 16.339-28.364 33.959l7.677 42.24c2.844 15.647 17.839 26.023 33.481 23.181 15.648-2.845 26.026-17.838 23.18-33.488zM693.165 437.762h57.594v-142.082h-57.594v142.082zM954.24 437.762h-145.894v-170.882c0-15.904-12.89-28.8-28.794-28.8h-115.181c-15.904 0-28.793 12.896-28.793 28.8v170.882h-142.057c-15.903 0-28.794-12.895-28.794-28.8v-403.202c0-15.904 12.893-28.8 28.794-28.8h460.725c15.898 0 28.794 12.896 28.794 28.8v403.202c-0.006 15.905-12.896 28.8-28.8 28.8z" />
<glyph unicode="&#xe90b;" glyph-name="Qurier_Yellow" d="M154.467 682.123c9.807-2.916 17.33-10.817 19.763-20.755l21.636-88.36 47.737-63.66 32.327 116.398c3.535 12.726 7.866 11.485 74.572 79.856 5.399 5.401 12.724 8.436 20.362 8.436h36.835l22.232 66.707c6.758 20.271 32.546 26.392 47.679 11.257l57.59-57.6c4.861-4.86 7.824-11.301 8.35-18.156l8.133-105.732 56.828-18.947 138.824 70.563c-36.819 170.064-188.41 297.868-369.304 297.868-160.45 0-297.843-100.55-352.551-241.948 68.213-17.209 44.41-10.787 128.987-35.929zM745.805 495.359c8.179 34.798 11.43 70.381 9.594 106.257l-131.53-66.854c-6.87-3.489-14.845-4.084-22.151-1.647l-86.384 28.8c-10.992 3.665-18.716 13.561-19.605 25.114l-8.78 114.178-17.113 17.115-14.062-42.192c-3.921-11.76-14.924-19.693-27.318-19.693h-45.663l-53.399-53.406-45.964-165.5c-6.388-22.993-36.463-28.661-50.782-9.571-90.557 122.077-88.84 115.512-91.317 125.627l-19.106 78.035-54.65 16.25-58.693 14.97c-54.065-247.385 146.159-476.773 398.255-457.58v203.699c0 47.64 38.751 86.399 86.385 86.399h252.284zM381.917 424.725l-7.678-42.24c-2.527-13.907-14.65-23.652-28.297-23.652-18.056 0-31.566 16.339-28.364 33.959l7.677 42.24c2.844 15.647 17.839 26.023 33.481 23.181 15.648-2.845 26.026-17.838 23.18-33.488zM693.165 437.762h57.594v-142.082h-57.594v142.082zM954.24 437.762h-145.894v-170.882c0-15.904-12.89-28.8-28.794-28.8h-115.181c-15.904 0-28.793 12.896-28.793 28.8v170.882h-142.057c-15.903 0-28.794-12.895-28.794-28.8v-403.202c0-15.904 12.893-28.8 28.794-28.8h460.725c15.898 0 28.794 12.896 28.794 28.8v403.202c-0.006 15.905-12.896 28.8-28.8 28.8z" />
<glyph unicode="&#xe90c;" glyph-name="Receiver_Grey" d="M701.528 706.071c0-3.381 1.078-6.142 3.241-8.282 2.158-2.144 5.4-4.115 9.724-5.914v25.688c-8.646-1.13-12.966-4.96-12.966-11.491zM741.722 609.567c-2.594 2.365-6.052 4.446-10.374 6.252v-25.014c5.186 0.449 8.858 1.574 11.022 3.38 2.158 1.802 3.241 4.168 3.241 7.1 0 3.153-1.296 5.914-3.889 8.281zM184 499.096h-184v-563.096h184v563.096zM851.844 269.686l-58-91.763h-259.988l-19.090 29.197h183.235c50.728 0 92 43.038 92 95.935s-41.272 95.935-92 95.935h-454.001v-335.102c48.452-61.486 121.903-100.779 204-100.779h312c145.57 0 264 123.499 264 275.295v31.283h-172.156zM726 960c-164.318 0-298-139.4-298-310.746 0-70.463 22.622-135.513 60.672-187.698h209.328c63.915 0 118.711-41.365 141.142-99.757 108.375 46.549 184.858 157.854 184.858 287.455 0 171.346-133.682 310.746-298 310.746zM807.034 573.735c-4.432-9.354-10.266-17.018-17.504-22.985-7.244-5.973-15.508-10.477-24.798-13.521-9.293-3.042-18.911-4.9-28.85-5.576v-40.899h-25.931v41.575c-14.912 1.351-29.716 4.394-44.411 9.126-14.697 4.733-27.875 10.701-39.546 17.915l27.23 57.8c5.834-3.835 12.101-7.437 18.803-10.817 5.616-2.931 12.156-5.804 19.611-8.62 7.457-2.819 15.072-4.79 22.852-5.914v29.746c-6.698 1.801-13.398 3.941-20.094 6.423-10.16 3.602-18.911 7.489-26.256 11.662-7.35 4.167-13.401 8.899-18.152 14.196-4.756 5.29-8.266 11.325-10.536 18.084-2.268 6.761-3.403 14.533-3.403 23.322 0 12.169 1.944 22.926 5.834 32.28 3.889 9.349 9.182 17.408 15.884 24.169 6.695 6.759 14.531 12.169 23.5 16.226 8.966 4.056 18.528 6.644 28.688 7.775v34.138h25.932v-34.479c7.132-0.903 14.044-2.254 20.745-4.056 6.696-1.806 13.129-3.887 19.287-6.252 6.158-2.367 11.938-4.849 17.342-7.437 5.397-2.593 10.372-5.019 14.909-7.267l-27.227-54.422c-4.756 3.153-9.942 6.083-15.56 8.789-4.756 2.477-10.104 4.784-16.046 6.93-5.947 2.138-11.944 3.771-17.99 4.901v-30.422c1.946-0.454 3.995-1.071 6.158-1.858 2.158-0.792 4.427-1.52 6.808-2.196 10.586-3.38 20.148-7.099 28.688-11.155 8.534-4.057 15.828-8.847 21.88-14.366 6.048-5.524 10.698-12.227 13.938-20.112 3.242-7.89 4.862-17.467 4.862-28.733 0-13.3-2.217-24.623-6.646-33.972z" />
<glyph unicode="&#xe90d;" glyph-name="Receiver_Yellow" d="M701.528 706.071c0-3.381 1.078-6.142 3.241-8.282 2.158-2.144 5.4-4.115 9.724-5.914v25.688c-8.646-1.13-12.966-4.96-12.966-11.491zM741.722 609.567c-2.594 2.365-6.052 4.446-10.374 6.252v-25.014c5.186 0.449 8.858 1.574 11.022 3.38 2.158 1.802 3.241 4.168 3.241 7.1 0 3.153-1.296 5.914-3.889 8.281zM184 499.096h-184v-563.096h184v563.096zM851.844 269.686l-58-91.763h-259.988l-19.090 29.197h183.235c50.728 0 92 43.038 92 95.935s-41.272 95.935-92 95.935h-454.001v-335.102c48.452-61.486 121.903-100.779 204-100.779h312c145.57 0 264 123.499 264 275.295v31.283h-172.156zM726 960c-164.318 0-298-139.4-298-310.746 0-70.463 22.622-135.513 60.672-187.698h209.328c63.915 0 118.711-41.365 141.142-99.757 108.375 46.549 184.858 157.854 184.858 287.455 0 171.346-133.682 310.746-298 310.746zM807.034 573.735c-4.432-9.354-10.266-17.018-17.504-22.985-7.244-5.973-15.508-10.477-24.798-13.521-9.293-3.042-18.911-4.9-28.85-5.576v-40.899h-25.931v41.575c-14.912 1.351-29.716 4.394-44.411 9.126-14.697 4.733-27.875 10.701-39.546 17.915l27.23 57.8c5.834-3.835 12.101-7.437 18.803-10.817 5.616-2.931 12.156-5.804 19.611-8.62 7.457-2.819 15.072-4.79 22.852-5.914v29.746c-6.698 1.801-13.398 3.941-20.094 6.423-10.16 3.602-18.911 7.489-26.256 11.662-7.35 4.167-13.401 8.899-18.152 14.196-4.756 5.29-8.266 11.325-10.536 18.084-2.268 6.761-3.403 14.533-3.403 23.322 0 12.169 1.944 22.926 5.834 32.28 3.889 9.349 9.182 17.408 15.884 24.169 6.695 6.759 14.531 12.169 23.5 16.226 8.966 4.056 18.528 6.644 28.688 7.775v34.138h25.932v-34.479c7.132-0.903 14.044-2.254 20.745-4.056 6.696-1.806 13.129-3.887 19.287-6.252 6.158-2.367 11.938-4.849 17.342-7.437 5.397-2.593 10.372-5.019 14.909-7.267l-27.227-54.422c-4.756 3.153-9.942 6.083-15.56 8.789-4.756 2.477-10.104 4.784-16.046 6.93-5.947 2.138-11.944 3.771-17.99 4.901v-30.422c1.946-0.454 3.995-1.071 6.158-1.858 2.158-0.792 4.427-1.52 6.808-2.196 10.586-3.38 20.148-7.099 28.688-11.155 8.534-4.057 15.828-8.847 21.88-14.366 6.048-5.524 10.698-12.227 13.938-20.112 3.242-7.89 4.862-17.467 4.862-28.733 0-13.3-2.217-24.623-6.646-33.972z" />
<glyph unicode="&#xe90e;" glyph-name="shipper_yellow" d="M429.301 638.681c12.52-4.754 25.882-7.174 39.269-7.174 31.443 0 61.874 13.704 82.739 37.222 21.066 23.743 30.959 55.976 26.952 87.457-3.931 30.877-21.207 59.144-46.778 76.863-26.19 18.153-59.703 24.086-90.564 16.145-29.964-7.71-55.807-28.229-70.236-55.579-14.885-28.224-16.74-62.407-5.025-92.089 11.325-28.716 34.779-51.881 63.642-62.845zM541.985 61.103c0.015 0.012 0.019 0.018 0.019 0.030-0.012-0.018-0.031-0.036-0.043-0.054-0.029-0.042-0.052-0.084-0.079-0.126 0.027 0.048 0.069 0.102 0.102 0.151zM742.629 852.626c-0.614 0.424-1.217 0.846-1.777 1.234 0.506-0.351 1.078-0.746 1.777-1.234zM740.141 854.354c-0.855 0.593-1.47 1.019-1.614 1.121 0.145-0.102 0.657-0.457 1.614-1.121zM738.587 855.439c-0.126 0.090-0.102 0.072 0 0v0zM787.643 811.563l16.245 18.846c4.361 5.060 12.854 6.157 18.974 2.443l169.346-102.65 30.594 53.856c2.952 5.196 0.265 11.466-5.999 14.004l-184.266 74.576c-6.264 2.536-13.734 0.381-16.691-4.818l-10.993-19.356-9.12 3.69c-17.48 7.072-36.888 6.732-53.103 0.473-0.012-0.002-0.012-0.004-0.018-0.006-14.902 10.127-35.202 6.404-45.502-8.422 0 0-102.698-156.579-137.918-198.513-26.278-31.289-51.314-40.023-89.041-34.808-18.633 2.575-249.478 59.968-249.478 59.968-12.646 3.056-25.762-1.963-33.54-11.778-22.618 2.895-45.746-8.119-57.145-29.379l-4.357-8.112-20.771 11.144c-5.58 2.991-12.524 0.897-15.517-4.679l-87.983-163.99c-2.987-5.576-0.893-12.522 4.683-15.515l57.795-31.006 58.623 180.696c2.114 6.532 9.132 10.106 15.662 7.988l24.33-7.894 0.969 2.976-17.597 9.439 4.357 8.112c6.128 11.425 17.941 17.837 30.088 17.713 0.452-5.927 2.485-11.658 5.861-16.536-5.637-6.225-10.086-13.696-12.84-22.188l-3.085-9.505-24.333 7.894c-6.528 2.118-13.545-1.456-15.659-7.988l-62.319-192.074c-2.122-6.533 1.458-13.544 7.988-15.662l165.549-53.717c6.53-2.114 13.543 1.464 15.666 7.987l62.317 192.076c2.114 6.532-1.462 13.546-7.992 15.664l-24.333 7.896 3.086 9.501c1.556 4.789 2.471 9.631 2.826 14.44l159.007-58.525c1.425-4.312 13.705-37.531 20.669-72.297 4.432-22.12 6.314-44.655 7.593-67.155 0.894-15.776 0.652-31.56 0.473-47.354-0.188-16.27 2.481-32.196 8.927-47.2-0.552-20.552-1.612-41.099-3.358-61.585-1.912-22.42-5.427-44.701-9.093-66.909-4.63-28.070-11.882-38.858-12.367-39.593-8.987-3.397-19.862-2.235-29.169-1.012-11.109 1.458-22.059 4.084-32.81 7.228-9.448 2.771-18.763 5.975-27.947 9.511-7.299 2.819-14.406 6.036-21.603 9.090-3.35 1.422-6.673 2.994-10.357 3.789-3.782 0.825-7.684 1.090-11.543 0.795-7.643-0.59-15.068-3.379-21.193-7.987-12.793-9.626-18.711-26.455-14.805-41.966 2.764-10.981 10.163-20.432 20.167-25.739 32.098-17.547 66.425-32.611 102.295-40.394 19.421-4.21 39.568-6.289 59.342-3.439 20.547 2.952 40.080 11.565 54.998 26.184 3.539 3.47 6.805 7.288 9.747 11.276 1.608 2.644 3.615 5.090 5.296 7.692 2.915 4.494 5.599 9.132 8.084 13.878 4.971 9.493 9.221 19.366 13.002 29.389 7.592 20.119 13.464 40.87 18.504 61.759 3.305 13.716 6.251 27.515 8.926 41.37 5.584 0.241 11.112 0.891 16.599 1.97 9.921-20.275 19.113-40.924 26.913-62.115-20.884-8.15-31.106-32.738-22.221-53.32 6.005-13.938 13.306-27.256 23.564-38.575 11.15-12.306 25.257-21.859 41.364-26.293 8.812-2.427 18.065-3.247 27.106-1.849 18.167 2.843 33.37 16.986 36.611 36.117 6.993 41.201 0.319 83.311-9.144 123.585-5.138 21.817-11.384 43.375-18.348 64.675-4.56 13.95-9.294 27.907-14.77 41.526-1.078 2.705-2.12 5.427-3.277 8.102 1.355 9.053 1.47 18.137 0.717 27.25-0.753 9.108-1.373 18.245-2.313 27.336-2.223 21.513-5.222 42.998-9.276 64.243-8.433 44.249-20.293 87.973-37.731 129.576-4.728 11.299-9.818 22.441-15.493 33.303l65.813 123.27 7.409-4.485-16.239-18.851c-4.361-5.058-2.933-12.168 3.186-15.88l180.013-109.114c6.12-3.707 14.619-2.612 18.98 2.446l110.514 128.246c4.367 5.059 2.939 12.169-3.186 15.876l-180.013 109.114c-6.12 3.712-14.619 2.616-18.98-2.443l-16.239-18.848-8.909 5.399c-7.228 4.383-15.143 7.392-23.293 9.113 2.283 6.486 2.427 13.421 0.608 19.855 9.15 2.934 19.709 2.836 29.304-1.047l9.12-3.688-9.312-16.396 2.777-1.696zM266.529 567.591l-3.086-9.505-69.586 22.579 3.079 9.505c2.043 6.292 5.658 11.63 10.245 15.774l60.784-22.371c0.687-5.215 0.292-10.651-1.435-15.982zM762.639 787.098l8.903-5.403-46.441-53.907-8.909 5.398c-1.042 0.628-2.018 1.291-2.958 1.982l31.015 58.091c6.421-0.718 12.758-2.744 18.39-6.161zM740.876 853.844c-0.259 0.186-0.506 0.356-0.729 0.508 0.229-0.162 0.476-0.331 0.729-0.508z" />
<glyph unicode="&#xe90f;" glyph-name="Shipper" d="M429.305 638.68c12.52-4.754 25.88-7.174 39.267-7.174 31.444 0 61.873 13.705 82.739 37.222 21.067 23.743 30.959 55.976 26.952 87.457-3.929 30.877-21.207 59.145-46.776 76.863-26.191 18.153-59.703 24.086-90.563 16.145-29.966-7.711-55.808-28.229-70.236-55.579-14.886-28.225-16.739-62.407-5.024-92.089 11.325-28.716 34.778-51.881 63.642-62.845zM541.993 61.102c0.017 0.010 0.020 0.020 0.020 0.034-0.014-0.020-0.031-0.041-0.044-0.058-0.027-0.041-0.051-0.082-0.079-0.123 0.027 0.048 0.072 0.099 0.102 0.147zM742.636 852.627c-0.614 0.424-1.222 0.846-1.778 1.233 0.505-0.351 1.079-0.746 1.778-1.233zM740.147 854.354c-0.857 0.593-1.471 1.020-1.615 1.121 0.143-0.102 0.655-0.457 1.615-1.121zM738.55 855.465c-0.075 0.051-0.058 0.041 0 0v0zM787.644 811.563l16.241 18.846c4.362 5.060 12.861 6.157 18.975 2.442l169.349-102.65 30.59 53.856c2.953 5.197 0.266 11.466-5.997 14.004l-184.265 74.576c-6.263 2.536-13.735 0.381-16.695-4.818l-10.991-19.356-9.12 3.69c-17.476 7.072-36.888 6.732-53.105 0.473-0.007-0.002-0.010-0.004-0.014-0.006-14.903 10.127-35.205 6.404-45.5-8.422 0 0-102.7-156.579-137.919-198.513-26.279-31.287-51.316-40.022-89.044-34.806-18.63 2.574-249.476 59.967-249.476 59.967-12.647 3.056-25.762-1.963-33.54-11.778-22.618 2.895-45.746-8.118-57.145-29.379l-4.357-8.112-20.771 11.144c-5.58 2.991-12.524 0.897-15.517-4.679l-87.983-163.991c-2.987-5.574-0.893-12.52 4.683-15.514l57.795-31.007 58.623 180.695c2.114 6.533 9.132 10.107 15.662 7.991l24.331-7.895 0.968 2.976-17.596 9.438 4.357 8.114c6.129 11.425 17.941 17.837 30.088 17.713 0.453-5.927 2.485-11.658 5.861-16.537-5.637-6.225-10.086-13.697-12.84-22.189l-3.085-9.503-24.333 7.892c-6.528 2.12-13.545-1.454-15.66-7.987l-62.319-192.072c-2.122-6.533 1.458-13.544 7.988-15.664l165.55-53.716c6.53-2.116 13.543 1.461 15.666 7.987l62.317 192.075c2.114 6.533-1.462 13.548-7.992 15.664l-24.333 7.895 3.087 9.503c1.556 4.789 2.471 9.632 2.826 14.442l159.007-58.525c1.427-4.314 13.705-37.533 20.671-72.298 4.431-22.122 6.311-44.657 7.591-67.154 0.894-15.776 0.652-31.56 0.471-47.357-0.188-16.271 2.481-32.195 8.929-47.196-0.553-20.552-1.611-41.1-3.359-61.59-1.911-22.415-5.427-44.698-9.093-66.908-4.628-28.068-11.882-38.857-12.367-39.591-8.987-3.396-19.862-2.232-29.167-1.010-11.11 1.457-22.060 4.082-32.812 7.229-9.448 2.768-18.763 5.973-27.945 9.513-7.301 2.813-14.408 6.028-21.603 9.083-3.352 1.423-6.673 2.993-10.359 3.792-3.78 0.823-7.682 1.085-11.542 0.792-7.643-0.587-15.069-3.376-21.193-7.987-12.793-9.626-18.712-26.45-14.805-41.964 2.764-10.977 10.163-20.429 20.167-25.737 32.097-17.551 66.425-32.614 102.296-40.393 19.422-4.215 39.567-6.287 59.341-3.444 20.548 2.953 40.079 11.568 54.999 26.187 3.54 3.471 6.806 7.284 9.748 11.278 1.608 2.642 3.615 5.089 5.294 7.687 2.915 4.499 5.598 9.134 8.086 13.882 4.97 9.492 9.219 19.364 13.001 29.385 7.591 20.118 13.462 40.871 18.504 61.761 3.304 13.718 6.25 27.515 8.926 41.37 5.584 0.246 11.11 0.894 16.599 1.966 9.919-20.272 19.111-40.919 26.914-62.109-20.89-8.151-31.113-32.741-22.224-53.323 6.007-13.937 13.309-27.252 23.566-38.574 11.148-12.305 25.259-21.859 41.363-26.293 8.813-2.427 18.063-3.246 27.109-1.85 18.166 2.847 33.369 16.992 36.608 36.123 6.994 41.196 0.317 83.306-9.144 123.58-5.137 21.815-11.38 43.373-18.35 64.676-4.557 13.947-9.291 27.907-14.763 41.527-1.085 2.703-2.123 5.427-3.28 8.103 1.352 9.052 1.468 18.138 0.717 27.249-0.751 9.107-1.376 18.244-2.314 27.334-2.222 21.514-5.222 42.998-9.274 64.246-8.434 44.247-20.292 87.972-37.731 129.574-4.734 11.302-9.82 22.443-15.497 33.304l65.816 123.27 7.41-4.485-16.241-18.85c-4.359-5.058-2.935-12.167 3.188-15.88l180.012-109.116c6.12-3.707 14.619-2.611 18.978 2.447l110.517 128.246c4.362 5.058 2.935 12.17-3.188 15.876l-180.012 109.115c-6.12 3.712-14.619 2.616-18.982-2.443l-16.237-18.848-8.912 5.399c-7.226 4.383-15.145 7.393-23.293 9.114 2.284 6.485 2.427 13.421 0.608 19.855 9.151 2.934 19.709 2.836 29.303-1.048l9.12-3.688-9.312-16.396 2.778-1.696zM266.528 567.59l-3.087-9.503-69.585 22.579 3.078 9.503c2.043 6.294 5.658 11.629 10.245 15.776l60.784-22.374c0.687-5.212 0.291-10.65-1.435-15.981zM762.641 787.098l8.902-5.403-46.445-53.907-8.909 5.399c-1.038 0.628-2.017 1.291-2.956 1.982l31.014 58.090c6.424-0.718 12.759-2.744 18.394-6.161zM740.881 853.844c-0.263 0.185-0.509 0.356-0.73 0.508 0.229-0.162 0.474-0.331 0.73-0.508z" />
<glyph unicode="&#xe910;" glyph-name="Transport_Grey" horiz-adv-x="1877" d="M1869.005 420.352l-176 284.444c-10.564 17.181-29.687 27.648-50.338 27.648h-352v170.667c0 31.403-26.283 56.889-58.667 56.889h-821.333c-32.384 0-58.667-25.486-58.667-56.889v-56.889h-293.333c-32.384 0-58.667-25.487-58.667-56.889s26.283-56.889 58.667-56.889h293.333v-113.777h-176c-32.384 0-58.667-25.487-58.667-56.889s26.283-56.888 58.667-56.888h176v-113.778h-58.667c-32.384 0-58.667-25.486-58.667-56.888s26.283-56.889 58.667-56.889h58.667v-170.667c0-31.403 26.283-56.892 58.667-56.892h186.795c24.288-66.099 88.821-113.775 165.205-113.775s140.919 47.676 165.205 113.775h490.923c24.286-66.099 88.823-113.775 165.205-113.775s140.919 47.676 165.205 113.775h69.461c32.384 0 58.667 25.489 58.667 56.892v284.444c0 10.354-2.816 20.48-8.329 29.241zM762.667 49.775c-32.384 0-58.667 25.6-58.667 56.892 0 31.289 26.283 56.889 58.667 56.889s58.667-25.6 58.667-56.889c0-31.292-26.283-56.892-58.667-56.892zM1584 49.775c-32.265 0-58.667 25.6-58.667 56.892 0 31.289 26.402 56.889 58.667 56.889s58.667-25.6 58.667-56.889c0-31.292-26.402-56.892-58.667-56.892zM1408 391.111v227.556h201.463l140.8-227.556h-342.263z" />
<glyph unicode="&#xe911;" glyph-name="Transport_Yellow" horiz-adv-x="1877" d="M1869.005 420.352l-176 284.444c-10.564 17.181-29.687 27.648-50.338 27.648h-352v170.667c0 31.403-26.283 56.889-58.667 56.889h-821.333c-32.384 0-58.667-25.486-58.667-56.889v-56.889h-293.333c-32.384 0-58.667-25.487-58.667-56.889s26.283-56.889 58.667-56.889h293.333v-113.777h-176c-32.384 0-58.667-25.487-58.667-56.889s26.283-56.888 58.667-56.888h176v-113.778h-58.667c-32.384 0-58.667-25.486-58.667-56.888s26.283-56.889 58.667-56.889h58.667v-170.667c0-31.403 26.283-56.892 58.667-56.892h186.795c24.288-66.099 88.821-113.775 165.205-113.775s140.919 47.676 165.205 113.775h490.923c24.286-66.099 88.823-113.775 165.205-113.775s140.919 47.676 165.205 113.775h69.461c32.384 0 58.667 25.489 58.667 56.892v284.444c0 10.354-2.816 20.48-8.329 29.241zM762.667 49.775c-32.384 0-58.667 25.6-58.667 56.892 0 31.289 26.283 56.889 58.667 56.889s58.667-25.6 58.667-56.889c0-31.292-26.283-56.892-58.667-56.892zM1584 49.775c-32.265 0-58.667 25.6-58.667 56.892 0 31.289 26.402 56.889 58.667 56.889s58.667-25.6 58.667-56.889c0-31.292-26.402-56.892-58.667-56.892zM1408 391.111v227.556h201.463l140.8-227.556h-342.263z" />
<glyph unicode="&#xe912;" glyph-name="tripper_yellow" horiz-adv-x="843" d="M820.079 496.745c-33.388 15.916-67.343 30.994-100.725 47.469-6.511 3.351-13.017 8.935-16.697 15.358-25.178 44.677-49.23 89.912-74.692 134.589-34.803 60.593-102.991 71.204-153.071 22.059-82.335-80.697-162.973-162.791-244.176-244.605-14.43-14.52-15.561-29.878-6.225-48.586 1.698-3.63 3.395-8.097 2.547-11.728-8.205-34.345-16.976-68.411-26.031-103.872-25.464 0-50.363 0-75.261 0-40.461-0.283-75.262-27.648-84.882-66.741-6.225-25.13-13.015-50.26-18.957-75.39-7.356-30.991-15.279-61.988-21.22-93.539-4.527-25.13 13.864-55.85 36.782-59.199 16.693 36.021 38.762 51.941 68.471 49.146 30.274-3.072 49.514-21.781 58.568-57.802 5.376 0 10.752 0 16.411 0 1.132 4.747 2.547 8.656 3.395 12.565 27.728 125.657 55.173 251.031 82.901 376.683 0.849 4.188 2.547 9.214 5.659 12.007 26.313 24.014 52.909 47.469 79.505 71.204 24.333 21.78 48.665 43.839 72.715 65.619 1.132-0.558 1.981-1.117 3.112-1.675-6.225-27.923-11.318-56.404-18.674-84.048-10.186-37.417-5.376-72.041 12.449-106.386 61.397-119.79 122.229-239.857 183.344-359.93 14.149-27.642 41.026-38.255 66.771-26.805 26.034 11.451 35.936 39.37 24.335 68.409-34.804 84.89-67.337 170.61-104.97 254.103-19.24 42.442-28.294 82.372-10.186 126.212 0.283 0.279 0 0.837 0.283 1.396 9.62 40.209 19.523 80.698 29.989 124.816 9.903-15.916 17.263-29.319 26.317-41.326 6.222-8.098 14.426-16.754 23.763-20.663 41.876-17.592 84.317-34.066 127.042-50.262 6.789-2.513 14.993-3.63 22.070-2.234 18.39 3.072 29.991 16.475 32.256 34.066 1.976 16.195-5.945 30.995-22.92 39.093zM418.306 284.25c-10.469-35.461-19.806-67.572-29.709-99.406-2.547-8.096-6.791-16.197-12.166-22.895-31.689-39.93-64.227-79.3-96.199-118.953-19.805-24.57-18.39-53.332 3.395-72.041 22.069-18.709 50.929-15.637 72.715 7.819 33.669 36.021 67.339 71.764 100.725 107.785 11.035 12.005 21.787 24.293 31.689 37.412 3.112 3.909 4.527 12.011 2.547 16.197-23.201 46.634-47.251 93.545-72.998 144.083zM614.382 767.319c53.76-0.558 98.744 42.722 99.31 95.496 0.566 51.937-43.285 96.335-96.479 97.172-54.891 0.838-99.313-42.164-99.595-96.614 0.283-52.775 43.006-95.218 96.764-96.055zM100.284 38.81c-22.352-0.283-39.894-19.269-39.611-42.165 0.283-20.944 18.674-38.255 40.177-37.978 21.787 0 40.178 17.312 40.46 38.255 0.566 22.618-18.391 42.165-41.026 41.888z" />
<glyph unicode="&#xe913;" glyph-name="bag" horiz-adv-x="585" d="M347.127 940.79h-103.197c-47.337 0-85.844-35.601-85.844-79.359v-94.042h63.585v94.042c0 11.348 9.984 20.576 22.257 20.576h103.197c12.275 0 22.259-9.23 22.259-20.576v-94.042h63.586v94.042c0 43.758-38.509 79.359-85.843 79.359zM492.656 708.607h-394.258c-33.073 0-59.98-24.874-59.98-55.449v-509.51c0-30.574 26.907-55.447 59.98-55.447h394.258c33.070 0 59.977 24.873 59.977 55.447v509.508c0 30.577-26.902 55.451-59.977 55.451zM98.398 29.418c-2.399 0-4.777 0.078-7.145 0.205v-45.022c0-16.233 14.235-29.394 31.792-29.394s31.792 13.161 31.792 29.394v44.817h-56.44zM492.656 29.418h-56.443v-44.817c0-16.233 14.235-29.394 31.792-29.394s31.79 13.161 31.79 29.394v45.022c-2.365-0.127-4.74-0.205-7.139-0.205z" />
<glyph unicode="&#xe914;" glyph-name="Box_Black" d="M983.456 734.059l-464.936 224.452c-4.121 1.988-8.922 1.988-13.042 0l-464.938-224.452c-5.184-2.501-8.478-7.752-8.478-13.507v-545.099c0-5.756 3.294-11.006 8.478-13.507l464.936-224.451c2.060-0.995 4.291-1.492 6.522-1.492s4.46 0.497 6.522 1.492l464.936 224.451c5.185 2.501 8.478 7.752 8.478 13.507v545.096c0 5.76-3.295 11.006-8.478 13.51zM511.999 928.345l430.434-207.793-124.774-60.236c-0.79 0.602-1.624 1.158-2.54 1.6l-427.509 206.38 124.389 60.050zM353.732 851.335l429.809-207.492-88.031-42.499-429.629 207.408 87.851 42.582zM793.597 615.387v-157.092l-82.227-39.695v157.092l82.227 39.695zM961.935 184.865l-434.937-209.964v511.783l103.746 50.084c7.461 3.603 10.588 12.569 6.987 20.031-3.603 7.458-12.569 10.59-20.031 6.986l-105.702-51.030-41.592 20.080c-7.462 3.607-16.428 0.473-20.031-6.986-3.601-7.461-0.473-16.428 6.986-20.031l39.637-19.134v-511.783l-434.936 209.968v511.783l331.2-159.889c2.103-1.016 4.325-1.496 6.51-1.496 5.576 0 10.933 3.124 13.518 8.482 3.603 7.459 0.475 16.428-6.986 20.029l-324.74 156.773 149.010 71.935 450.588-217.526c0.066-0.092 0.141-0.174 0.209-0.265v-179.998c0-5.161 2.654-9.959 7.026-12.706 2.428-1.524 5.198-2.294 7.977-2.294 2.224 0 4.454 0.493 6.519 1.492l112.226 54.178c5.184 2.501 8.478 7.75 8.478 13.507v180.99l138.338 66.785v-511.786zM185.852 243.042l-68.23 32.938c-7.464 3.607-16.428 0.473-20.030-6.986-3.602-7.461-0.474-16.428 6.986-20.031l68.23-32.937c2.103-1.016 4.325-1.496 6.511-1.496 5.576 0 10.932 3.124 13.518 8.482 3.604 7.462 0.475 16.425-6.984 20.029zM248.646 283.917l-130.93 63.207c-7.462 3.603-16.428 0.475-20.030-6.987-3.6-7.461-0.472-16.429 6.988-20.031l130.93-63.209c2.103-1.013 4.325-1.496 6.51-1.496 5.576 0 10.933 3.124 13.518 8.482 3.603 7.465 0.475 16.433-6.986 20.033z" />
<glyph unicode="&#xe915;" glyph-name="Box" d="M983.456 734.059l-464.936 224.452c-4.121 1.988-8.922 1.988-13.042 0l-464.938-224.452c-5.184-2.501-8.478-7.752-8.478-13.507v-545.099c0-5.756 3.294-11.006 8.478-13.507l464.936-224.451c2.060-0.995 4.291-1.492 6.522-1.492s4.46 0.497 6.522 1.492l464.936 224.451c5.184 2.501 8.478 7.752 8.478 13.507v545.096c0 5.76-3.295 11.006-8.478 13.51zM511.999 928.345l430.434-207.793-124.774-60.236c-0.79 0.602-1.624 1.158-2.54 1.6l-427.511 206.38 124.391 60.050zM353.732 851.335l429.809-207.492-88.031-42.499-429.629 207.408 87.851 42.582zM793.596 615.387v-157.092l-82.226-39.695v157.092l82.226 39.695zM961.935 184.865l-434.937-209.964v511.783l103.746 50.084c7.461 3.603 10.588 12.569 6.986 20.031-3.601 7.458-12.567 10.59-20.029 6.986l-105.702-51.030-41.592 20.080c-7.462 3.607-16.428 0.473-20.031-6.986-3.601-7.461-0.473-16.428 6.986-20.031l39.637-19.134v-511.783l-434.937 209.968v511.783l331.2-159.889c2.103-1.016 4.323-1.496 6.51-1.496 5.576 0 10.933 3.124 13.518 8.482 3.603 7.459 0.475 16.428-6.986 20.029l-324.74 156.773 149.010 71.935 450.588-217.526c0.066-0.092 0.141-0.174 0.209-0.265v-179.998c0-5.161 2.653-9.959 7.026-12.706 2.428-1.524 5.198-2.294 7.977-2.294 2.224 0 4.454 0.493 6.519 1.492l112.226 54.178c5.184 2.501 8.478 7.75 8.478 13.507v180.99l138.338 66.785v-511.786zM185.852 243.042l-68.231 32.938c-7.464 3.607-16.428 0.473-20.030-6.986-3.602-7.461-0.474-16.428 6.986-20.031l68.23-32.937c2.103-1.016 4.325-1.496 6.51-1.496 5.576 0 10.933 3.124 13.518 8.482 3.604 7.462 0.476 16.425-6.983 20.029zM248.646 283.917l-130.93 63.207c-7.462 3.603-16.428 0.475-20.030-6.987-3.6-7.461-0.472-16.429 6.988-20.031l130.93-63.209c2.103-1.013 4.323-1.496 6.51-1.496 5.576 0 10.933 3.124 13.518 8.482 3.603 7.465 0.475 16.433-6.986 20.033z" />
<glyph unicode="&#xe916;" glyph-name="Calander" d="M772 500c22.093 0 40 17.908 40 40s-17.907 40-40 40c-22.093 0-40-17.908-40-40s17.907-40 40-40zM864 880h-52v40c0 22.092-17.907 40-40 40s-40-17.908-40-40v-40h-182v40c0 22.092-17.908 40-40 40s-40-17.908-40-40v-40h-180v40c0 22.092-17.908 40-40 40s-40-17.908-40-40v-40h-50c-88.224 0-160-71.776-160-160v-624c0-88.224 71.776-160 160-160h306c22.092 0 40 17.907 40 40s-17.908 40-40 40h-306c-44.112 0-80 35.891-80 80v624c0 44.112 35.888 80 80 80h50v-40c0-22.092 17.908-40 40-40s40 17.908 40 40v40h180v-40c0-22.092 17.908-40 40-40s40 17.908 40 40v40h182v-40c0-22.092 17.907-40 40-40s40 17.908 40 40v40h52c44.109 0 80-35.888 80-80v-228c0-22.092 17.907-40 40-40s40 17.908 40 40v228c0 88.224-71.776 160-160 160zM782.003 420c-133.446 0-242.003-108.557-242.003-242.003 0-133.44 108.557-241.997 242.003-241.997 133.44 0 241.997 108.557 241.997 241.997 0 133.446-108.557 242.003-241.997 242.003zM782.003 16c-89.331 0-162.003 72.672-162.003 161.997 0 89.331 72.672 162.003 162.003 162.003 89.325 0 161.997-72.672 161.997-162.003 0-89.325-72.672-161.997-161.997-161.997zM840 217.997h-17.997v42.003c0 22.093-17.914 40-40 40-22.093 0-40-17.907-40-40v-82.003c0-22.086 17.907-40 40-40h57.997c22.093 0 40 17.914 40 40 0 22.093-17.907 40-40 40zM598 500c22.092 0 40 17.908 40 40s-17.908 40-40 40c-22.092 0-40-17.908-40-40s17.908-40 40-40zM424 326c22.092 0 40 17.908 40 40s-17.908 40-40 40c-22.092 0-40-17.908-40-40s17.908-40 40-40zM250 500c22.092 0 40 17.908 40 40s-17.908 40-40 40c-22.092 0-40-17.908-40-40s17.908-40 40-40zM250 326c22.092 0 40 17.908 40 40s-17.908 40-40 40c-22.092 0-40-17.908-40-40s17.908-40 40-40zM250 152c22.092 0 40 17.907 40 40s-17.908 40-40 40c-22.092 0-40-17.907-40-40s17.908-40 40-40zM424 152c22.092 0 40 17.907 40 40s-17.908 40-40 40c-22.092 0-40-17.907-40-40s17.908-40 40-40zM424 500c22.092 0 40 17.908 40 40s-17.908 40-40 40c-22.092 0-40-17.908-40-40s17.908-40 40-40z" />
<glyph unicode="&#xe917;" glyph-name="Cross" d="M512 960c282.313 0 512-229.687 512-512s-229.687-512-512-512c-282.313 0-512 229.687-512 512s229.689 512 512 512zM285.72 312.218l90.498-90.5 135.782 135.782 135.782-135.782 90.5 90.5-135.782 135.779 135.782 135.782-90.5 90.5-135.782-135.782-135.782 135.782-90.498-90.5 135.781-135.782-135.781-135.779z" />
<glyph unicode="&#xe918;" glyph-name="CurrencyIcon" d="M512 960c-282.322 0-512-229.678-512-512 0-282.324 229.678-512 512-512 282.324 0 512 229.676 512 512 0 282.322-229.676 512-512 512zM662.589 297.411c0-58.191-51.821-106.845-120.469-118.034v-32.556c0-16.65-13.472-30.112-30.117-30.112s-30.117 13.469-30.117 30.112v32.556c-68.652 11.189-120.469 59.843-120.469 118.034 0 16.645 13.471 30.116 30.116 30.116 16.649 0 30.117-13.471 30.117-30.116 0-25.614 25.61-47.903 60.236-56.403v191.618c-58.931 42.54-120.469 91.505-120.469 165.959 0 58.188 51.821 106.842 120.469 118.032v32.554c0 16.648 13.472 30.117 30.117 30.117s30.117-13.472 30.117-30.117v-32.554c68.652-11.19 120.469-59.847 120.469-118.032 0-16.648-13.471-30.119-30.116-30.119-16.649 0-30.117 13.471-30.117 30.119 0 25.614-25.61 47.901-60.236 56.405v-191.62c58.927-42.54 120.469-91.505 120.469-165.959zM421.647 598.589c0-34.124 25.844-62.732 60.236-90.468v146.873c-34.626-8.504-60.236-30.792-60.236-56.405zM542.117 241.009c34.626 8.499 60.236 30.788 60.236 56.403 0 34.124-25.844 62.732-60.236 90.468v-146.87z" />
<glyph unicode="&#xe919;" glyph-name="dropDown" horiz-adv-x="1195" d="M106.963 960h980.74c39.799 0 76.305-24.253 94.763-62.839 18.458-38.656 15.814-85.34-6.849-121.142l-502.96-794.904c-17.915-28.368-47.432-45.191-78.87-45.116-31.473 0.145-60.896 17.196-78.667 45.638l-496.412 794.904c-22.429 35.957-24.863 82.421-6.367 120.937 18.521 38.422 54.929 62.521 94.622 62.521z" />
<glyph unicode="&#xe91a;" glyph-name="Flight_BG_Shadow" horiz-adv-x="1094" d="M34.344 82.22c30.173-9.572 58.634-23.874 84.322-42.373 23.728-15.928 62.191-32.742 83.050-14.002 29.93 26.964-29.064 93.971-29.064 163.904 0.212 54.179 38.27 93.644 104.506 108.281 17.709 3.605 34.133 11.877 47.573 23.959-8.286 22.737-10.081 47.333-5.182 71.032-31.972 33.301-84.34 34.823-138.789 94.376-143.99-78.819-206.759-252.521-146.415-405.177zM345.126 528.517c-43.679 0.897-87.082-7.117-127.56-23.554 44.819-43.298 80.026-44.78 114.425-71.263l26.964 81.027-13.829 13.79zM390.040 616.69c-12.942 12.963-15.561 17.335-23.112 17.488-6.568 0.424-7.376-2.118-30.604-25.385-4.637-5.421-4.098-13.553 1.214-18.317l34.995-34.977 19.857 59.572c-0.822 0.482-1.607 1.023-2.351 1.617zM643.197 896.002c-2.634 2.684-6.199 4.256-9.957 4.391-3.121 0.149-6.165-0.994-8.417-3.159l-22.168-22.188c-4.6-5.448-4.063-13.56 1.214-18.355l5.142-5.142 61.787 16.853-27.6 27.6zM786.089 700.722c0.763-0.095 1.522-0.23 2.273-0.404 3.163-0.822 6.526 0.044 8.898 2.292 2.24 2.391 3.112 5.758 2.311 8.937-0.177 0.728-0.306 1.469-0.385 2.214-1.882 7.455-4.46 14.717-7.704 21.687l-40.447-20.204c10.89-6.572 22.707-11.468 35.055-14.522zM558.279 591.672c65.388-65.35 113.75-96.763 199.651-158.127 11.703-8.321 17.065-22.997 13.482-36.902l-16.948-67.796 11.96-11.961 150.23 150.23-11.961 11.941-67.796-16.968c-13.932-3.508-28.588 1.899-36.902 13.617-60.958 85.322-93.046 134.531-158.145 199.631-4.365 4.379-6.364 10.586-5.371 16.688 0.991 6.103 4.852 11.358 10.378 14.129l286.804 143.411c-22.998 24.816-57.872 34.811-90.523 25.944l-299.15-81.625c-9.99-2.679-20.651 0.161-27.984 7.454l-84.745 84.744c-69.933 69.915-125.615 69.048-148.303 64.579-2.678-15.158-5.779-70.377 65.215-148.959 36.71-40.639 83.3-87.807 96.687-101.27 7.717-7.711 10.383-19.137 6.876-29.468l-93.585-280.602c-8.881-32.648 1.108-67.526 25.925-90.523l143.353 286.842c2.772 5.538 8.036 9.406 14.15 10.394s12.33-1.023 16.705-5.405zM518.41 482.486l-20.204-40.447c7.616-3.634 15.65-6.319 23.921-7.993 3.166-0.902 6.572-0.017 8.899 2.31s3.212 5.734 2.31 8.899c-2.866 13.137-7.912 25.701-14.926 37.172v0.058zM656.024 282.121c-13.009-23.64-33.572-42.235-58.397-52.812-42.373-17.545-97.726-11.151-94.779-46.321 2.712-19.811 8.265-39.128 16.486-57.357 23.112-59.089 21.687-75.269 14.754-115.561-5.959-23.217-5.619-47.603 0.982-70.647 106.435 78.875 154.299 214.487 120.954 342.697zM387.036-122.593c-42.371 28.331-87.845 42.758-167.564 36.941-10.237-0.817-20.425-2.154-30.527-4.006 60.922-31.54 130.24-43.065 198.090-32.934zM143.125-61.076c60.516 17.779 124.535 20.031 186.15 6.549 39.432-10.419 75.894-29.887 106.489-56.856 22.733 7.082 44.622 16.634 65.273 28.486-10.982 32-12.686 66.455-4.912 99.383 5.779 33.531 7.551 43.45-12.653 95.030-9.663 21.659-16.069 44.628-19.010 68.162-2.885 27.243 12.81 53.050 38.328 63.019 28.679 12.558 56.568 12.385 80.122 22.13 28.419 14.298 48.342 41.264 53.66 72.63-13.584 29.943-31.666 57.631-53.62 82.106-3.853 4.392-8.263 8.263-12.385 12.404-1.884-8.602-6.141-16.502-12.288-22.805-21.668-21.687-50.077-14.232-77.329-1.579l-64.618-129.313c-5.036-10.040-14.586-17.052-25.672-18.852s-22.364 1.83-30.317 9.761c-5.924 5.571-11.421 11.578-16.448 17.97-17.302-13.079-37.253-22.223-58.455-26.79-33.783-7.454-74.093-25.828-74.267-70.743 0-49.711 36.324-93.142 37.364-141.331 1.002-46.668-38.348-74.403-83.358-68.432-46.224 5.971-72.168 34.033-105.931 51.291 21.766-35.85 50.246-67.162 83.878-92.218zM870.429-89.368c115.773 52.118 185.109 130.583 205.968 233.222 30.585 150.402-52.715 323.975-143.046 421.605-7.040 7.83-6.485 19.863 1.245 27.014s19.769 6.769 27.029-0.859c100.018-108.108 185.977-290.849 152.521-455.446-23.478-115.446-100.153-203.156-227.887-260.667-9.701-4.372-21.11-0.051-25.481 9.65s-0.051 21.11 9.65 25.481zM945.91 167.986c6.391 49.146-9.218 98.61-42.661 135.187-7.299 7.558-7.195 19.57 0.235 27 7.429 7.429 19.442 7.533 26.999 0.235 41.592-44.746 61.282-105.586 53.794-166.216-8.725-87.942-63.057-169.489-153.003-229.369-8.849-5.904-20.81-3.515-26.714 5.334-5.903 8.851-3.515 20.81 5.335 26.715 80.161 53.447 128.465 124.863 136.015 201.115zM806.273 131.392c5.122 26.667-1.667 54.241-18.586 75.48-7.299 7.557-7.195 19.57 0.234 26.999s19.442 7.535 27 0.235c48.439-48.44 44.51-156.008-38.521-239.096-7.557-7.299-19.57-7.195-26.999 0.234s-7.535 19.442-0.235 27c30.527 29.108 50.598 67.472 57.107 109.148zM897.605 605.693c-10.637 0-19.261 8.624-19.261 19.261s8.624 19.261 19.261 19.261c10.637 0 19.261-8.624 19.261-19.261s-8.624-19.261-19.261-19.261z" />
<glyph unicode="&#xe91b;" horiz-adv-x="2430" d="M389.866 629.784c14.273 20.618 37.754 32.921 62.831 32.921h1849.057c57.909 0 94.773-61.914 67.187-112.831l-282.196-520.643c-28.29-52.213-84.274-83.305-143.559-79.731l-1807.686 108.977c-59.459 3.586-92.138 70.803-58.232 119.777l312.598 451.531z" />
<glyph unicode="&#xe91c;" horiz-adv-x="2430" d="M332.643 151.054l7.828-32.309c3.197-13.194-4.804-26.314-17.998-29.51-12.953-3.139-26.072 4.863-29.27 18.058l-7.828 32.308 47.268 11.454z" />
<glyph unicode="&#xe91d;" horiz-adv-x="2430" d="M685.047 236.437l7.828-32.309c3.197-13.194-4.805-26.314-17.999-29.51-12.953-3.139-26.071 4.863-29.268 18.058l-7.828 32.308 47.268 11.454z" />
<glyph unicode="&#xe91e;" horiz-adv-x="2430" d="M422.493 846.808l-25.155-6.095 25.123-103.694 25.157 6.095-25.125 103.694z" />
<glyph unicode="&#xe91f;" horiz-adv-x="2430" d="M264.597 808.551l-25.157-6.094 25.125-103.695 25.155 6.095-25.123 103.694z" />
<glyph unicode="&#xe920;" horiz-adv-x="2430" d="M410.315 907.945l17.261-71.24-30.11-7.295-11.102 45.818-127.786-30.961 11.102-45.817-30.11-7.296-17.261 71.24c-2.687 11.092 4.124 22.259 15.216 24.947l147.844 35.821c11.091 2.687 22.259-4.124 24.946-15.216z" />
<glyph unicode="&#xe921;" horiz-adv-x="2430" d="M588.957 747.068l117.058-483.138c5.89-24.31-9.143-48.956-33.719-54.911l-362.988-87.948c-24.6-5.961-49.222 9.078-55.113 33.389l-117.059 483.138c-5.96 24.6 9.072 49.247 33.649 55.201l362.988 87.948c24.576 5.954 49.222-9.078 55.183-33.679z" />
<glyph unicode="&#xe922;" horiz-adv-x="2430" d="M545.077 625.018l65.993-272.369c2.147-8.868-3.309-17.815-12.176-19.963-8.869-2.149-17.816 3.309-19.965 12.176l-65.991 272.369c-2.149 8.869 3.307 17.815 12.176 19.963 8.894 2.155 17.815-3.307 19.963-12.176z" />
<glyph unicode="&#xe923;" horiz-adv-x="2430" d="M443.303 635.792l82.204-339.282c2.149-8.869-3.309-17.815-12.176-19.963-8.869-2.149-17.815 3.307-19.963 12.176l-82.204 339.282c-2.149 8.869 3.307 17.815 12.176 19.963 8.874 2.124 17.815-3.307 19.963-12.176z" />
<glyph unicode="&#xe924;" horiz-adv-x="2430" d="M349.638 613.099l82.204-339.283c2.149-8.868-3.307-17.815-12.176-19.963s-17.815 3.309-19.963 12.176l-82.204 339.282c-2.149 8.869 3.307 17.816 12.176 19.965 8.875 2.124 17.815-3.309 19.963-12.176z" />
<glyph unicode="&#xe925;" horiz-adv-x="2430" d="M264.082 556.935l65.991-272.367c2.149-8.869-3.307-17.816-12.176-19.965-8.868-2.147-17.815 3.309-19.963 12.176l-65.991 272.369c-2.149 8.869 3.307 17.815 12.176 19.963s17.815-3.307 19.963-12.176z" />
<glyph unicode="&#xe926;" horiz-adv-x="2430" d="M216.373 703.844c4.672-19.285-7.174-38.707-26.459-43.379l-10.608-2.571c-5.244-1.27-8.467-6.554-7.196-11.799l2.575-10.631c4.672-19.285-7.174-38.707-26.458-43.381l-11.031 45.528c-5.943 24.529 9.121 49.259 33.672 55.207l45.504 11.026z" />
<glyph unicode="&#xe927;" horiz-adv-x="2430" d="M354.88 132.137l-45.528-11.032c-24.527-5.942-49.259 9.121-55.207 33.673l-11.036 45.551c19.283 4.674 38.707-7.174 43.379-26.457l2.641-10.899c1.217-5.027 6.416-8.218 11.733-6.931l10.633 2.577c19.289 4.648 38.713-7.199 43.386-26.482z" />
<glyph unicode="&#xe928;" horiz-adv-x="2430" d="M589.006 747.080l11.036-45.551c-19.285-4.674-38.707 7.174-43.379 26.457l-2.577 10.633c-1.27 5.244-6.554 8.467-11.797 7.197l-10.608-2.571c-19.285-4.672-38.707 7.174-43.379 26.457l45.551 11.038c24.498 5.961 49.204-9.109 55.154-33.661z" />
<glyph unicode="&#xe929;" horiz-adv-x="2430" d="M694.958 309.783l11.036-45.551c5.942-24.529-9.121-49.259-33.648-55.201l-45.551-11.038c-4.674 19.285 7.174 38.707 26.457 43.379l10.608 2.571c5.317 1.288 8.484 6.482 7.261 11.533l-2.641 10.899c-4.678 19.308 7.17 38.73 26.477 43.408z" />
<glyph unicode="&#xe92a;" horiz-adv-x="2430" d="M589 747.103l117.042-483.065c5.913-24.408-9.101-49.024-33.751-54.996l-362.964-87.942c-11.357-2.753-22.743-1.162-32.291 4.457 172.090 21.484 303.873 222.012 299.173 463.154-1.427 69.242-13.735 134.826-35.022 193.116 22.086 1.77 42.426-12.49 47.813-34.723z" />
<glyph unicode="&#xe92b;" glyph-name="message" horiz-adv-x="1280" d="M577.254 487.236c33.423-22.283 92.069-22.285 125.499 0.003 0.005 0.003 0.012 0.008 0.017 0.010l569.669 379.78c-18.688 54.040-70.050 92.971-130.355 92.971h-1004.169c-60.313 0-111.671-38.93-130.358-92.971l569.68-379.783c0.007-0.005 0.012-0.005 0.017-0.010zM744.371 424.842c-0.008-0.005-0.013-0.010-0.018-0.013-29.255-19.503-66.811-29.255-104.353-29.255-37.55 0-75.091 9.75-104.348 29.257-0.005 0.003-0.008 0.005-0.013 0.008l-535.639 357.090v-642.685c0-76.047 61.868-137.905 137.916-137.905h1004.177c76.041 0 137.907 61.858 137.907 137.905v642.685l-535.629-357.088z" />
<glyph unicode="&#xe92c;" horiz-adv-x="951" d="M640.003 118.857c0-100.996-81.872-182.857-182.863-182.857s-182.854 81.861-182.854 182.857c0 100.988 81.864 182.859 182.854 182.859s182.863-81.871 182.863-182.859v0z" />
<glyph unicode="&#xe92d;" horiz-adv-x="951" d="M814.629 293.303c-4.886-0.176-9.691-0.728-14.629-0.728-214.263 0-388.571 174.308-388.571 388.569 0 75.293 21.898 145.421 59.113 205.028-4.487 0.184-8.873 0.686-13.401 0.686-176.451 0-319.997-143.538-319.997-319.997v-127.45c0-90.469-39.635-175.865-109.168-234.655-17.779-15.17-27.974-37.347-27.974-60.752 0-44.12 35.884-80.004 79.997-80.004h754.285c44.12 0 80.004 35.884 80.004 80.004 0 23.406-10.196 45.583-28.431 61.169-29.491 24.958-53.263 55.033-71.227 88.13z" />
<glyph unicode="&#xe92e;" horiz-adv-x="951" d="M136.231 293.303c4.888-0.176 9.693-0.728 14.631-0.728 214.26 0 178.281 197.165 178.281 411.426 0 75.293 146.929 123.251 109.714 182.857 4.487 0.184 50.333 0 54.862 0 176.45 0 319.996-143.538 319.996-319.997v-127.45c0-90.469 39.636-175.865 109.166-234.655 17.781-15.17 27.977-37.347 27.977-60.752 0-44.12-35.884-80.004-79.996-80.004h-754.284c-44.121 0-80.005 35.884-80.005 80.004 0 23.406 10.195 45.583 28.435 61.169 29.489 24.958 53.262 55.033 71.225 88.13z" />
<glyph unicode="&#xe92f;" glyph-name="Plane" d="M855.461 437.686c20.17 20.167 24.252 26.971 36.019 27.21 10.234 0.66 11.494-3.297 47.693-39.498 7.225-8.434 6.386-21.089-1.892-28.498l-54.537-54.423-30.945 92.692c1.277 0.751 2.503 1.593 3.661 2.517zM460.942 872.28c4.105 4.176 9.66 6.622 15.516 6.833 4.864 0.232 9.609-1.546 13.116-4.915l34.549-34.523c7.168-8.477 6.332-21.098-1.892-28.559l-8.013-8.001-96.29 26.222 43.014 42.944zM238.259 568.437c-1.191-0.151-2.373-0.358-3.542-0.629-4.929-1.28-10.17 0.068-13.867 3.564-3.492 3.721-4.849 8.96-3.602 13.906 0.275 1.135 0.476 2.284 0.6 3.445 2.931 11.6 6.951 22.898 12.006 33.744l63.033-31.434c-16.971-10.229-35.387-17.843-54.628-22.596zM593.277 398.757c-101.899-101.68-177.269-150.556-311.136-246.036-18.238-12.948-26.594-35.78-21.011-57.418l26.412-105.486-18.638-18.611-234.119 233.751 18.639 18.58 105.653-26.402c21.712-5.458 44.553 2.955 57.509 21.188 94.998 132.756 145.004 209.326 246.454 310.616 6.804 6.812 9.916 16.469 8.371 25.964s-7.561 17.673-16.174 21.985l-446.957 223.14c35.839 38.612 90.188 54.164 141.071 40.367l466.196-127.004c15.568-4.169 32.182 0.249 43.611 11.598l132.068 131.859c108.985 108.783 195.76 107.435 231.117 100.482 4.173-23.585 9.006-109.503-101.632-231.772-57.207-63.232-129.815-136.624-150.676-157.571-12.026-11.998-16.182-29.778-10.715-45.852l145.843-436.602c13.841-50.796-1.724-105.065-40.4-140.848l-223.403 446.313c-4.318 8.616-12.524 14.635-22.053 16.171-9.526 1.539-19.214-1.59-26.032-8.411zM655.408 228.87l31.488-62.933c-11.87-5.652-24.391-9.83-37.279-12.436-4.935-1.402-10.243-0.028-13.87 3.595-3.627 3.621-5.006 8.92-3.601 13.847 4.469 20.44 12.331 39.99 23.262 57.836v0.091z" />
<glyph unicode="&#xe930;" glyph-name="Search_Large" d="M450.946 960c-248.644 0-450.946-202.302-450.946-450.95 0-248.659 202.302-450.946 450.946-450.946 248.663 0 450.95 202.287 450.95 450.946 0 248.648-202.287 450.95-450.95 450.95zM450.946 141.355c-202.744 0-367.694 164.951-367.694 367.695 0 202.746 164.95 367.698 367.694 367.698 202.748 0 367.699-164.95 367.699-367.698 0-202.744-164.951-367.695-367.699-367.695zM1011.803 7.058l-238.655 238.655c-16.262 16.262-42.598 16.262-58.86 0-16.262-16.25-16.262-42.614 0-58.86l238.655-238.655c8.133-8.133 18.775-12.197 29.432-12.197 10.642 0 21.299 4.064 29.428 12.197 16.262 16.246 16.262 42.61 0 58.86z" />
<glyph unicode="&#xe931;" glyph-name="Search_Small_Grey" d="M450.948 960c-248.645 0-450.948-202.302-450.948-450.948 0-248.659 202.302-450.951 450.948-450.951 248.66 0 450.944 202.292 450.944 450.951 0 248.646-202.284 450.948-450.944 450.948zM450.948 141.351c-202.746 0-367.696 164.953-367.696 367.699s164.95 367.698 367.696 367.698c202.746 0 367.693-164.95 367.693-367.696s-164.947-367.7-367.693-367.7zM1011.807 7.058l-238.659 238.654c-16.262 16.262-42.598 16.262-58.86 0-16.263-16.248-16.263-42.612 0-58.86l238.654-238.658c8.129-8.129 18.779-12.193 29.428-12.193 10.642 0 21.299 4.064 29.436 12.193 16.258 16.25 16.258 42.614 0 58.864z" />
<glyph unicode="&#xe932;" glyph-name="search" d="M450.948 960c-248.646 0-450.948-202.302-450.948-450.948 0-248.663 202.302-450.95 450.948-450.95 248.663 0 450.95 202.288 450.95 450.95 0 248.646-202.288 450.948-450.95 450.948zM450.948 141.353c-202.746 0-367.696 164.951-367.696 367.697s164.95 367.698 367.696 367.698c202.746 0 367.692-164.95 367.692-367.696s-164.947-367.699-367.692-367.699zM1011.801 7.059l-238.653 238.653c-16.261 16.261-42.598 16.261-58.86 0-16.261-16.247-16.261-42.612 0-58.86l238.653-238.653c8.131-8.131 18.773-12.199 29.43-12.199 10.643 0 21.299 4.069 29.43 12.199 16.268 16.247 16.268 42.612 0 58.86z" />
<glyph unicode="&#xe933;" glyph-name="Settings" d="M52.415 555.493l71.874 12.193c7.487 24.172 17.113 47.488 28.878 69.735l-42.355 59.253c-17.968 25.242-15.188 59.681 6.845 81.5l63.745 63.746c11.979 11.979 27.808 18.61 44.708 18.61 13.262 0 25.883-4.065 36.579-11.765l59.468-42.355c23.102 12.193 47.274 22.247 72.302 29.734l11.979 71.019c5.134 30.589 31.445 52.836 62.462 52.836h90.057c31.018 0 57.328-22.247 62.463-52.836l12.407-72.73c23.958-7.487 47.274-17.327 69.519-29.306l58.825 42.355c10.697 7.7 23.532 11.765 36.796 11.765 16.896 0 32.939-6.631 44.708-18.61l63.959-63.746c21.818-21.819 24.815-56.259 6.847-81.5l-42.783-60.109c11.762-22.461 21.176-45.777 28.447-69.949l71.018-11.979c30.59-5.134 52.838-31.445 52.838-62.462v-90.057c0-31.018-22.248-57.328-52.838-62.462l-72.724-12.407c-7.489-23.958-17.333-47.274-29.307-69.523l42.141-58.607c17.968-25.245 15.183-59.686-6.847-81.504l-63.747-63.747c-11.981-11.974-27.805-18.609-44.708-18.609-13.264 0-25.88 4.069-36.577 11.769l-60.109 42.783c-21.605-11.339-44.28-20.541-67.596-27.812l-11.979-71.871c-5.134-30.59-31.445-52.838-62.462-52.838h-90.271c-31.017 0-57.328 22.248-62.462 52.838l-12.193 71.871c-24.172 7.489-47.488 17.114-69.735 28.877l-59.253-42.353c-10.695-7.7-23.53-11.762-36.792-11.762-16.899 0-32.728 6.629-44.708 18.609l-63.745 63.741c-21.819 21.825-24.814 56.259-6.845 81.504l42.354 59.467c-11.765 22.46-21.605 45.777-28.877 69.735l-71.875 11.979c-30.589 5.134-52.836 31.445-52.836 62.462v90.057c-0.428 31.018 21.819 57.328 52.408 62.462zM57.335 402.975c0-2.781 1.925-5.134 4.706-5.562l89.843-14.974c11.337-1.925 20.322-10.268 23.102-21.177 8.129-31.445 20.535-61.607 37.22-89.629 5.776-9.837 5.348-22.030-1.283-31.444l-52.836-74.445c-1.498-2.137-1.283-5.345 0.642-7.27l63.745-63.747c1.497-1.495 2.995-1.707 4.065-1.707 1.283 0 2.352 0.423 3.209 1.065l74.227 52.838c9.198 6.629 21.605 7.059 31.445 1.283 28.022-16.684 58.184-29.095 89.629-37.219 11.123-2.785 19.466-11.981 21.178-23.101l15.187-89.846c0.428-2.778 2.781-4.704 5.562-4.704h90.057c2.781 0 5.134 1.925 5.562 4.704l14.974 89.846c1.926 11.332 10.268 20.316 21.178 23.101 30.589 7.912 60.109 20.105 87.704 35.936 4.492 2.567 9.626 3.85 14.548 3.85 5.775 0 11.762-1.713 16.684-5.345l74.868-53.268c1.072-0.642 2.137-1.065 3.209-1.065 0.853 0 2.567 0.212 4.062 1.707l63.747 63.747c1.925 1.925 2.137 4.922 0.642 7.27l-52.62 73.803c-6.636 9.414-7.059 21.818-1.283 31.655 16.684 27.811 29.519 57.972 37.649 89.417 2.99 10.91 11.974 19.253 23.101 21.178l90.481 15.402c2.785 0.427 4.71 2.781 4.71 5.562v90.057c0 2.781-1.925 5.134-4.71 5.562l-89.197 14.974c-11.339 1.925-20.535 10.268-23.32 21.391-7.912 31.445-20.105 61.82-36.577 89.842-5.775 9.84-5.134 22.033 1.495 31.231l53.268 74.869c1.495 2.139 1.283 5.348-0.642 7.273l-63.747 63.745c-1.495 1.498-2.997 1.711-4.062 1.711-1.283 0-2.355-0.428-3.209-1.070l-73.803-52.622c-9.414-6.631-21.818-7.059-31.655-1.283-27.811 16.685-57.973 29.52-89.418 37.648-10.91 2.995-19.252 11.979-21.177 23.102l-15.402 90.485c-0.428 2.781-2.781 4.706-5.562 4.706h-90.057c-2.781 0-5.134-1.925-5.562-4.706l-14.974-89.201c-1.925-11.338-10.267-20.536-21.391-23.316-32.301-8.129-63.104-20.75-91.768-37.648-9.84-5.776-22.033-5.348-31.445 1.283l-73.8 53.050c-1.069 0.642-2.139 1.070-3.209 1.070-0.855 0-2.567-0.214-4.064-1.711l-63.746-63.746c-1.925-1.925-2.139-4.92-0.642-7.272l52.836-74.228c6.631-9.198 7.059-21.605 1.283-31.445-16.685-28.022-29.092-58.184-37.22-89.629-2.781-11.123-11.979-19.466-23.103-21.177l-89.843-15.188c-2.781-0.427-4.706-2.781-4.706-5.562v-90.057h0.214zM511.896 669.15c121.93 0 220.974-99.041 220.974-220.97s-99.044-220.968-220.974-220.968c-121.929 0-220.97 99.039-220.97 220.968s99.041 220.97 220.97 220.97zM511.896 284.966c90.057 0 163.215 73.157 163.215 163.214s-73.158 163.215-163.215 163.215c-90.057 0-163.214-73.158-163.214-163.215s73.157-163.214 163.214-163.214z" />
<glyph unicode="&#xe934;" glyph-name="Tripper" horiz-adv-x="869" d="M844.93 486.294c-34.4 16.275-69.381 31.694-103.781 48.541-6.703 3.426-13.408 9.138-17.197 15.704-25.944 45.686-50.725 91.94-76.961 137.625-35.856 61.959-106.108 72.81-157.705 22.557-84.831-82.519-167.911-166.462-251.576-250.123-14.867-14.848-16.033-30.552-6.413-49.683 1.749-3.711 3.498-8.279 2.624-11.99-8.454-35.12-17.491-69.955-26.819-106.217-26.236 0-51.889 0-77.542 0-41.686-0.285-77.542-28.269-87.454-68.242-6.413-25.699-13.409-51.395-19.531-77.095-7.579-31.691-15.742-63.386-21.863-95.651-4.664-25.696 14.284-57.105 37.897-60.531 17.199 36.833 39.937 53.108 70.546 50.25 31.192-3.14 51.015-22.27 60.343-59.103 5.539 0 11.078 0 16.908 0 1.166 4.853 2.623 8.853 3.498 12.85 28.568 128.487 56.845 256.689 85.413 385.176 0.874 4.285 2.624 9.424 5.83 12.279 27.111 24.557 54.513 48.541 81.916 72.81 25.069 22.27 50.139 44.829 74.916 67.1 1.167-0.571 2.042-1.142 3.209-1.713-6.414-28.554-11.661-57.676-19.242-85.945-10.494-38.26-5.539-73.666 12.828-108.786 63.258-122.492 125.933-245.27 188.9-368.047 14.575-28.266 42.269-39.117 68.797-27.409 26.819 11.705 37.022 40.259 25.069 69.955-35.856 86.801-69.381 174.455-108.15 259.829-19.825 43.402-29.153 84.232-10.494 129.061 0.292 0.285 0 0.856 0.292 1.427 9.911 41.115 20.114 82.516 30.9 127.631 10.203-16.275 17.78-29.981 27.108-42.26 6.414-8.279 14.87-17.132 24.489-21.129 43.145-17.988 86.869-34.835 130.889-51.395 6.994-2.569 15.45-3.711 22.736-2.284 18.95 3.14 30.903 16.846 33.233 34.835 2.042 16.561-6.122 31.694-23.611 39.973zM430.983 269.008c-10.786-36.262-20.406-69.098-30.608-101.649-2.625-8.279-6.997-16.558-12.536-23.412-32.65-40.83-66.172-81.088-99.114-121.636-20.406-25.125-18.948-54.536 3.498-73.666 22.738-19.13 52.472-15.99 74.919 7.997 34.689 36.833 69.381 73.38 103.778 110.213 11.37 12.279 22.447 24.84 32.65 38.26 3.205 3.997 4.664 12.279 2.622 16.561-23.903 47.684-48.68 95.651-75.208 147.332zM633 762.973c55.389-0.571 101.739 43.686 102.322 97.651 0.58 53.108-44.603 98.507-99.406 99.364-56.556 0.857-102.322-43.115-102.614-98.793 0.292-53.965 44.311-97.365 99.697-98.222zM103.323 18.029c-23.029-0.285-41.103-19.701-40.812-43.114 0.292-21.417 19.24-39.12 41.395-38.831 22.446 0 41.395 17.703 41.686 39.117 0.583 23.127-18.948 43.114-42.269 42.828z" />
<glyph unicode="&#xe935;" glyph-name="Arrival" d="M888.488 686.834c-15.884 13.244-36.536 19.331-58.143 17.13-9.196-0.927-18.211-3.361-26.808-7.21l-597.536-268.526-108.635 56.345c-7.829 4.063-17.876 1.778-23.659-5.517l-36.928-45.953c-5.46-6.787-5.589-16.036-0.327-22.258l113.082-133.976c4.687-5.566 12.645-7.463 19.976-4.755l311.939 115.306-58.52-202.715c-1.933-6.705 0.213-13.615 5.444-17.826 5.263-4.19 12.743-4.915 19.263-1.868l102.019 47.829c0.938 0.446 1.868 0.975 2.716 1.548 2.675 1.806 4.911 4.26 6.414 7.082l137.691 257.323 165.265 72.754c32.825 14.086 53.891 46.254 52.519 82.235-0.778 20.94-9.925 39.801-25.772 53.052zM660.472 41.828h-600.738c-10.377 0-18.774-8.397-18.774-18.772v-37.544c0-10.379 8.397-18.776 18.774-18.776h600.738c10.375 0 18.772 8.397 18.772 18.776v37.544c0 10.375-8.397 18.772-18.772 18.772z" />
<glyph unicode="&#xe936;" horiz-adv-x="1000" d="M311.814-36.465c56.719 0 102.698 45.979 102.698 102.698s-45.979 102.698-102.698 102.698c-56.719 0-102.698-45.979-102.698-102.698s45.979-102.698 102.698-102.698z" />
<glyph unicode="&#xe937;" horiz-adv-x="1000" d="M311.814-53.581c-23.697 0-46.862 7.027-66.565 20.192-19.704 13.166-35.060 31.879-44.128 53.771-9.068 21.893-11.441 45.985-6.818 69.226 4.622 23.241 16.034 44.59 32.789 61.347 16.757 16.755 38.106 28.167 61.347 32.789 23.241 4.623 47.333 2.25 69.226-6.818s40.605-24.425 53.771-44.128c13.164-19.702 20.192-42.867 20.192-66.565-0.036-31.765-12.67-62.22-35.133-84.681-22.461-22.463-52.916-35.097-84.681-35.133zM311.814 151.814c-16.927 0-33.473-5.019-47.547-14.423s-25.043-22.77-31.52-38.408c-6.477-15.637-8.172-32.845-4.87-49.446s11.453-31.85 23.422-43.819 27.218-20.12 43.819-23.422c16.601-3.302 33.809-1.607 49.446 4.87 15.639 6.477 29.004 17.447 38.408 31.52s14.423 30.62 14.423 47.547c-0.025 22.69-9.050 44.443-25.094 60.487-16.045 16.043-37.798 25.068-60.487 25.094z" />
<glyph unicode="&#xe938;" horiz-adv-x="1000" d="M808.186-36.465c56.719 0 102.698 45.979 102.698 102.698s-45.979 102.698-102.698 102.698c-56.719 0-102.698-45.979-102.698-102.698s45.979-102.698 102.698-102.698z" />
<glyph unicode="&#xe939;" horiz-adv-x="1000" d="M808.186-53.581c-23.697 0-46.862 7.027-66.565 20.192-19.704 13.166-35.060 31.879-44.128 53.771-9.068 21.893-11.441 45.985-6.818 69.226 4.622 23.241 16.034 44.59 32.789 61.347 16.757 16.755 38.106 28.167 61.347 32.789 23.241 4.623 47.333 2.25 69.226-6.818s40.605-24.425 53.771-44.128c13.164-19.702 20.192-42.867 20.192-66.565-0.036-31.765-12.67-62.22-35.133-84.681-22.461-22.463-52.916-35.097-84.681-35.133zM808.186 151.814c-16.926 0-33.473-5.019-47.547-14.423-14.073-9.404-25.043-22.77-31.52-38.408-6.477-15.637-8.172-32.845-4.87-49.446s11.453-31.85 23.422-43.819 27.218-20.12 43.819-23.422c16.601-3.302 33.809-1.607 49.446 4.87 15.639 6.477 29.004 17.447 38.408 31.52s14.423 30.62 14.423 47.547c-0.025 22.69-9.050 44.443-25.094 60.487s-37.798 25.068-60.487 25.094z" />
<glyph unicode="&#xe93a;" horiz-adv-x="1000" d="M414.512 922.047h513.488v-650.419h-513.488v650.419z" />
<glyph unicode="&#xe93b;" horiz-adv-x="1000" d="M157.767 288.744v564.837l-92.063 92.063c-3.372 3.372-7.374 6.046-11.78 7.871s-9.127 2.764-13.895 2.764c-4.768 0-9.49-0.939-13.895-2.764s-8.408-4.499-11.779-7.871c-3.372-3.372-6.046-7.374-7.871-11.779s-2.764-9.127-2.764-13.895c0-4.768 0.939-9.49 2.764-13.895s4.499-8.408 7.871-11.78l74.947-74.947v-530.605h68.465z" />
<glyph unicode="&#xe93c;" horiz-adv-x="1000" d="M174.884 271.628h821.581v-68.465h-821.581v68.465z" />
<glyph unicode="&#xe93d;" horiz-adv-x="1000" d="M791.070 203.163v-136.93h34.233l68.465 85.581v51.349h-102.698z" />
<glyph unicode="&#xe93e;" horiz-adv-x="1000" d="M123.535 357.209c13.618 0 26.679-5.411 36.309-15.040 9.629-9.63 15.040-22.691 15.040-36.309v-102.698h-102.698v102.698c0 13.618 5.41 26.679 15.040 36.309s22.691 15.040 36.309 15.040z" />
<glyph unicode="&#xe93f;" horiz-adv-x="1000" d="M123.535 288.744c9.453 0 17.116 7.663 17.116 17.116s-7.663 17.116-17.116 17.116c-9.453 0-17.116-7.663-17.116-17.116s7.663-17.116 17.116-17.116z" />
<glyph unicode="&#xe940;" horiz-adv-x="1000" d="M602.791 922.047v-154.047l34.233 34.233 34.233-34.233 34.233 34.233 34.233-34.233v154.047h-136.93z" />
<glyph unicode="&#xe941;" horiz-adv-x="1000" d="M791.070 357.209h34.233v-34.233h-34.233v34.233z" />
<glyph unicode="&#xe942;" horiz-adv-x="1000" d="M739.721 357.209h34.233v-34.233h-34.233v34.233z" />
<glyph unicode="&#xe943;" horiz-adv-x="1000" d="M842.419 357.209h34.233v-34.233h-34.233v34.233z" />
<glyph unicode="&#xe944;" horiz-adv-x="1000" d="M243.349 682.419h445.023v-410.791h-445.023v410.791z" />
<glyph unicode="&#xe945;" horiz-adv-x="1000" d="M397.395 682.419v-154.047l34.233 34.233 34.233-34.233 34.233 34.233 34.233-34.233v154.047h-136.93z" />
<glyph unicode="&#xe946;" horiz-adv-x="1000" d="M551.442 357.209h34.233v-34.233h-34.233v34.233z" />
<glyph unicode="&#xe947;" horiz-adv-x="1000" d="M500.093 357.209h34.233v-34.233h-34.233v34.233z" />
<glyph unicode="&#xe948;" horiz-adv-x="1000" d="M602.791 357.209h34.233v-34.233h-34.233v34.233z" />
<glyph unicode="&#xe949;" horiz-adv-x="1000" d="M294.698 425.674h34.233v-34.233h-34.233v34.233z" />
<glyph unicode="&#xe94a;" horiz-adv-x="1000" d="M363.163 425.674h68.465v-34.233h-68.465v34.233z" />
<glyph unicode="&#xe94b;" horiz-adv-x="1000" d="M294.698 357.209h102.698v-34.233h-102.698v34.233z" />
<glyph unicode="&#xe94c;" horiz-adv-x="1000" d="M294.698 203.163v-136.93h34.233l68.465 85.581v51.349h-102.698z" />
<glyph unicode="&#xe94d;" glyph-name="Cancel_Icon" d="M399.223 448.033l-382.859 382.876c-10.531 10.54-16.342 24.601-16.359 39.595 0 15.002 5.811 29.080 16.359 39.603l33.551 33.542c10.548 10.565 24.609 16.351 39.619 16.351 14.985 0 29.047-5.786 39.595-16.351l382.86-382.851 382.876 382.851c10.53 10.565 24.602 16.351 39.603 16.351 14.985 0 29.056-5.786 39.586-16.351l33.57-33.542c21.845-21.845 21.845-57.377 0-79.198l-382.871-382.876 382.871-382.856c10.539-10.564 16.341-24.619 16.341-39.612s-5.803-29.056-16.341-39.603l-33.562-33.545c-10.53-10.556-24.61-16.35-39.586-16.35-15.002 0-29.073 5.794-39.603 16.35l-382.877 382.859-382.859-382.859c-10.548-10.556-24.609-16.35-39.595-16.35-14.994 0-29.072 5.794-39.62 16.35l-33.551 33.545c-10.531 10.539-16.342 24.61-16.342 39.603s5.811 29.047 16.342 39.603l382.851 382.864z" />
<glyph unicode="&#xe94e;" glyph-name="Confirmed_White" d="M512.050 960c-282.309 0-512-229.675-512-512 0-282.344 229.691-512 512-512 282.315 0 511.984 229.656 511.984 512-0.007 282.325-229.676 512-511.984 512zM748.175 526.888l-268.821-268.84c-5.852-5.857-16.219-5.857-22.079 0l-180.345 180.356c-2.93 2.938-4.549 6.848-4.549 11.048 0.008 4.183 1.627 8.118 4.549 11.073l23.050 23.042c2.931 2.922 6.849 4.524 11.056 4.524 4.183 0 8.109-1.602 11.031-4.524l140.595-140.594c3.112-3.146 8.176-3.146 11.297 0l229.078 229.077c5.857 5.861 16.241 5.861 22.084 0l23.054-23.084c2.929-2.905 4.581-6.856 4.581-11.015 0-4.208-1.652-8.126-4.581-11.064z" />
<glyph unicode="&#xe94f;" glyph-name="Departure_White" d="M997.632 710.080c-15.127 17.987-37.013 28.917-61.626 30.768-10.473 0.797-21.048-0.125-31.427-2.716l-722.060-181.136-110.284 84.716c-7.947 6.105-19.643 5.555-27.569-1.449l-50.484-44.041c-7.463-6.503-9.453-16.821-4.808-24.833l99.765-172.448c4.132-7.163 12.657-10.873 21.397-9.304l371.983 66.728-105.927-215.091c-3.501-7.117-2.481-15.276 2.531-21.034 5.050-5.739 13.272-8.038 21.178-5.935l123.671 33.15c1.14 0.312 2.285 0.717 3.351 1.187 3.351 1.485 6.344 3.784 8.588 6.642l205.396 260.384 199.401 48.406c39.531 9.207 69.52 40.988 75.166 81.514 3.309 23.581-3.16 46.506-18.241 64.493zM703.991 149.341h-682.657c-11.792 0-21.334-9.542-21.334-21.332v-42.668c0-11.79 9.542-21.332 21.334-21.332h682.657c11.79 0 21.332 9.542 21.332 21.332v42.668c0 11.79-9.542 21.332-21.332 21.332z" />
<glyph unicode="&#xe950;" glyph-name="Departure" horiz-adv-x="1252" d="M1247.607 522.097c-7.999 27.59-27.039 50.643-53.623 64.899-11.304 6.077-23.58 10.284-36.466 12.53l-896.528 155.188-81.277 149.278c-5.857 10.758-19.198 15.935-31.523 12.034l-78.221-24.209c-11.56-3.571-18.893-14.114-17.671-25.368l26.074-242.099c1.071-10.049 8.759-18.416 19.301-20.995l448.698-109.654-224.883-187.888c-7.436-6.218-10.337-15.838-7.587-24.752 2.801-8.914 10.848-15.559 20.726-17.118l154.606-24.212c1.425-0.21 2.904-0.33 4.329-0.33 4.481 0 8.964 1.087 12.885 3.169l358.462 189.234 246.778-44.662c48.737-9.29 97.98 11.372 124.359 53.858 15.377 24.71 19.502 53.53 11.56 81.098zM860.433 82.961h-834.359c-14.412 0-26.074-11.662-26.074-26.078v-52.144c0-14.416 11.662-26.078 26.074-26.078h834.359c14.41 0 26.072 11.662 26.072 26.078v52.144c0 14.416-11.662 26.078-26.072 26.078z" />
<glyph unicode="&#xe951;" d="M1024 448c0-282.77-229.23-512-512-512s-512 229.23-512 512c0 282.77 229.23 512 512 512s512-229.23 512-512z" />
<glyph unicode="&#xe952;" d="M727.239 371.979c-7.282 0-13.175-5.928-13.175-13.244v-117.584c-0.028-21.931-17.71-39.708-39.532-39.726h-369.719c-21.824 0.017-39.504 17.795-39.529 39.726v345.102c0.026 21.929 17.706 39.703 39.529 39.729h116.993c7.278 0 13.177 5.928 13.177 13.243 0 7.31-5.899 13.243-13.177 13.243h-116.993c-36.369-0.042-65.841-29.662-65.882-66.216v-345.108c0.041-36.551 29.513-66.173 65.882-66.213h369.719c36.369 0.040 65.843 29.662 65.883 66.213v117.589c0 7.316-5.899 13.244-13.175 13.244z" />
<glyph unicode="&#xe953;" d="M735.198 686.545c-23.159 23.274-60.7 23.274-83.86 0l-235.076-236.265c-1.611-1.619-2.774-3.626-3.381-5.83l-30.913-112.168c-1.271-4.597 0.021-9.523 3.377-12.902 3.361-3.374 8.261-4.671 12.836-3.396l111.604 31.073c2.192 0.609 4.189 1.781 5.8 3.402l235.069 236.267c23.125 23.289 23.125 60.991 0 84.28l-15.457 15.54zM444.973 441.672l192.393 193.369 62.049-62.361-192.399-193.368-62.042 62.36zM432.579 416.676l49.571-49.828-68.569-19.092 18.997 68.92zM732.023 605.452l-13.972-14.045-62.054 62.367 13.978 14.045c12.863 12.927 33.718 12.927 46.581 0l15.468-15.54c12.846-12.943 12.846-33.889 0-46.826z" />
<glyph unicode="&#xe954;" glyph-name="Facebook" d="M874.004 960h-724.002c-82.703 0-150-67.297-150-150v-723.997c0-82.705 67.297-150.002 150-150.002h302v362h-120v180h120v122c0 99.258 80.742 180 180 180h182.002v-180h-182.002v-122h182.002l-30.003-180h-151.999v-362h242.002c82.698 0 149.996 67.297 149.996 150.002v723.997c0 82.703-67.297 150-149.996 150z" />
<glyph unicode="&#xe955;" glyph-name="GreenMark" horiz-adv-x="951" d="M945.231 476.13c0-261.018-211.597-472.615-472.615-472.615s-472.615 211.597-472.615 472.615c0 261.018 211.597 472.615 472.615 472.615s472.615-211.597 472.615-472.615z" />
<glyph unicode="&#xe956;" glyph-name="info_Black" d="M512 960c-282.314 0-512-229.686-512-512 0-282.312 229.686-512 512-512 282.312 0 512 229.688 512 512 0 282.314-229.689 512-512 512zM545.303 144.219c-24.324-4.057-72.726-14.184-97.303-16.219-20.805-1.723-40.438 10.186-52.405 27.281-12 17.095-14.876 38.969-7.752 58.595l96.781 266.124h-100.626c-0.085 55.453 41.509 96.225 94.707 111.873 25.388 7.469 72.686 17.692 97.293 16.125 14.741-0.938 40.438-10.187 52.405-27.282 12-17.093 14.874-38.969 7.75-58.593l-96.78-266.124h100.593c0.019-55.388-40.024-102.674-94.664-111.78zM575.999 640c-35.347 0-64 28.657-64 64 0 35.347 28.653 64 64 64s64-28.653 64-64c0-35.346-28.652-64-64-64z" />
<glyph unicode="&#xe957;" glyph-name="info_White" d="M512 960c-282.314 0-512-229.686-512-512 0-282.312 229.686-512 512-512 282.312 0 512 229.688 512 512 0 282.314-229.689 512-512 512zM545.303 144.219c-24.324-4.057-72.726-14.184-97.303-16.219-20.805-1.723-40.438 10.186-52.405 27.281-12 17.095-14.876 38.969-7.752 58.595l96.781 266.124h-100.626c-0.085 55.453 41.509 96.225 94.707 111.873 25.388 7.469 72.686 17.692 97.293 16.125 14.741-0.938 40.438-10.187 52.405-27.282 12-17.093 14.874-38.969 7.75-58.593l-96.78-266.124h100.593c0.019-55.388-40.024-102.674-94.664-111.78zM575.999 640c-35.347 0-64 28.657-64 64 0 35.347 28.653 64 64 64s64-28.653 64-64c0-35.346-28.652-64-64-64z" />
<glyph unicode="&#xe958;" glyph-name="IVR_Call" d="M873.984 810.093c-199.975 199.918-524.157 199.87-724.074-0.11s-199.87-524.159 0.11-724.077c199.98-199.919 524.16-199.871 724.081 0.109 96.010 96.044 149.934 226.292 149.9 362.094-0.027 135.78-53.985 265.987-150.016 361.983zM775.407 246.791l-0.068-0.068v0.171l-25.941-25.771c-33.546-33.976-82.41-47.951-128.853-36.864-46.79 12.527-91.27 32.461-131.754 59.051-37.612 24.037-72.468 52.137-103.935 83.797-28.954 28.742-54.966 60.301-77.654 94.207-24.816 36.484-44.458 76.228-58.368 118.102-15.946 49.192-2.732 103.17 34.134 139.434l30.378 30.378c8.446 8.483 22.17 8.514 30.652 0.068l95.982-95.982c8.483-8.446 8.514-22.17 0.068-30.652l-56.388-56.388c-16.16-15.984-18.192-41.384-4.778-59.734 20.369-27.956 42.912-54.262 67.413-78.678 27.318-27.436 57.016-52.393 88.746-74.581 18.334-12.788 43.19-10.633 59.050 5.12l54.442 55.295c8.446 8.484 22.17 8.514 30.652 0.068l96.154-96.324c8.486-8.443 8.513-22.164 0.068-30.65z" />
<glyph unicode="&#xe959;" glyph-name="LinkProduct" d="M512 960c-282.32 0-512-229.683-512-512s229.68-512 512-512c282.317 0 512 229.683 512 512s-229.683 512-512 512zM503.168 244.907l-35.32-35.321c-53.68-53.685-140.575-53.692-194.265 0-53.558 53.555-53.558 140.705 0 194.262l105.964 105.964c53.56 53.552 140.702 53.552 194.262 0.003 14.631-14.631 14.631-38.35 0-52.983-14.628-14.628-38.349-14.631-52.98-0.003-24.346 24.349-63.96 24.341-88.302 0.003l-105.964-105.964c-24.344-24.344-24.344-63.958 0-88.3 24.346-24.351 63.957-24.344 88.301 0l35.32 35.319c14.631 14.631 38.353 14.631 52.981 0s14.633-38.35 0.002-52.98zM750.415 492.152l-105.961-105.964c-53.56-53.558-140.7-53.555-194.263-0.003-14.63 14.631-14.63 38.35 0 52.983 14.629 14.628 38.35 14.631 52.981 0.003 24.344-24.346 63.958-24.344 88.302-0.003l105.967 105.964c24.344 24.344 24.344 63.958 0 88.302-24.347 24.344-63.958 24.338-88.304 0l-35.32-35.32c-14.631-14.631-38.35-14.631-52.981 0-14.628 14.63-14.628 38.35 0 52.98l35.32 35.32c53.68 53.683 140.575 53.692 194.267 0 53.548-53.557 53.548-140.705-0.007-194.262z" />
<glyph unicode="&#xe95a;" horiz-adv-x="712" d="M346.624 23.231c83.444 0 151.093-13.53 151.093-30.221 0-16.687-67.649-30.217-151.093-30.217s-151.092 13.53-151.092 30.217c0 16.691 67.648 30.221 151.092 30.221z" />
<glyph unicode="&#xe95b;" horiz-adv-x="712" d="M348.136 960c-184.422 0-333.913-149.505-333.913-333.913 0-131.842 76.437-245.813 187.399-300.085l146.513-332.991v966.99z" />
<glyph unicode="&#xe95c;" horiz-adv-x="712" d="M348.136-6.99l146.514 332.991c110.962 54.272 187.401 168.243 187.401 300.085 0 184.408-149.491 333.913-333.915 333.913v-966.99z" />
<glyph unicode="&#xe95d;" horiz-adv-x="712" d="M348.137 741.567c63.776 0 115.481-51.704 115.481-115.48s-51.705-115.48-115.481-115.48c-63.776 0-115.479 51.705-115.479 115.48s51.704 115.48 115.479 115.48z" />
<glyph unicode="&#xe95e;" horiz-adv-x="668" d="M346.962 375.358h-65.179v-439.358h65.179v439.358z" />
<glyph unicode="&#xe95f;" horiz-adv-x="668" d="M314.373 340.097c-172.123 0-311.656 138.765-311.656 309.951 0 171.183 139.533 309.951 311.656 309.951v-619.903z" />
<glyph unicode="&#xe960;" horiz-adv-x="668" d="M314.37 960c172.124 0 311.655-138.768 311.655-309.951 0-171.186-139.531-309.951-311.655-309.951v619.903z" />
<glyph unicode="&#xe961;" horiz-adv-x="668" d="M314.375 538.209c62.114 0 112.467 50.072 112.467 111.839s-50.354 111.84-112.467 111.84c-62.114 0-112.467-50.072-112.467-111.84s50.353-111.839 112.467-111.839z" />
<glyph unicode="&#xe962;" horiz-adv-x="668" d="M346.96 375.358h-65.179v-439.358h65.179v439.358z" />
<glyph unicode="&#xe963;" horiz-adv-x="668" d="M314.371 340.097c-172.122 0-311.655 138.765-311.655 309.951 0 171.183 139.533 309.951 311.655 309.951v-619.903z" />
<glyph unicode="&#xe964;" horiz-adv-x="668" d="M314.368 960c172.121 0 311.657-138.768 311.657-309.951 0-171.186-139.536-309.951-311.657-309.951v619.903z" />
<glyph unicode="&#xe965;" horiz-adv-x="668" d="M314.372 538.209c62.114 0 112.467 50.072 112.467 111.839s-50.353 111.84-112.467 111.84c-62.114 0-112.467-50.072-112.467-111.84s50.353-111.839 112.467-111.839z" />
<glyph unicode="&#xe966;" horiz-adv-x="712" d="M346.626 23.231c83.444 0 151.092-13.53 151.092-30.217 0-16.691-67.648-30.221-151.092-30.221s-151.092 13.53-151.092 30.221c0 16.687 67.648 30.217 151.092 30.217z" />
<glyph unicode="&#xe967;" horiz-adv-x="712" d="M348.136 960c-184.422 0-333.913-149.505-333.913-333.913 0-131.842 76.437-245.813 187.399-300.085l146.513-332.991v966.99z" />
<glyph unicode="&#xe968;" horiz-adv-x="712" d="M348.136-6.99l146.514 332.991c110.962 54.272 187.401 168.243 187.401 300.085 0 184.408-149.491 333.913-333.915 333.913v-966.99z" />
<glyph unicode="&#xe969;" horiz-adv-x="712" d="M348.139 741.567c63.776 0 115.48-51.704 115.48-115.48s-51.704-115.48-115.48-115.48c-63.776 0-115.479 51.705-115.479 115.48s51.704 115.48 115.479 115.48z" />
<glyph unicode="&#xe96a;" glyph-name="MoneyBag" d="M954.171 122.178h-162.911c-102.656 0-186.176 83.522-186.176 186.181 0 102.657 83.52 186.178 186.176 186.178h162.911c12.859 0 23.274 10.41 23.274 23.273v69.817c0 48.802-37.859 88.49-85.687 92.339l-133.654 233.451c-12.383 21.591-32.385 37.023-56.318 43.431-23.818 6.364-48.726 3.022-70.044-9.386l-458.181-266.745h-80.47c-51.34 0-93.090-41.748-93.090-93.090v-558.538c0-51.339 41.748-93.089 93.090-93.089h791.258c51.339 0 93.096 41.75 93.096 93.089v69.815c0 12.866-10.416 23.274-23.274 23.274zM786.966 769.288l50.71-88.572h-202.842l152.132 88.572zM266.069 680.716l389.103 226.519c10.523 6.159 22.817 7.795 34.568 4.658 11.886-3.181 21.797-10.863 27.955-21.613l0.048-0.085-359.798-209.48h-91.877zM954.119 447.993h-162.911c-76.997 0-139.632-62.634-139.632-139.634s62.634-139.633 139.632-139.633h162.911c38.495 0 69.815 31.32 69.815 69.816v139.633c0 38.499-31.32 69.817-69.815 69.817zM791.208 261.815c-25.659 0-46.541 20.887-46.541 46.544s20.882 46.544 46.541 46.544c25.659 0 46.548-20.886 46.548-46.544s-20.882-46.544-46.548-46.544z" />
<glyph unicode="&#xe96b;" horiz-adv-x="801" d="M396.822 848.695c-173.71 0-314.518-140.822-314.518-314.519 0-124.184 71.998-231.533 176.514-282.655l138.004-313.649v910.823z" />
<glyph unicode="&#xe96c;" horiz-adv-x="801" d="M396.822-62.128l138.008 313.649c104.517 51.122 176.515 158.471 176.515 282.655 0 173.697-140.811 314.519-314.524 314.519v-910.823z" />
<glyph unicode="&#xe96d;" horiz-adv-x="801" d="M801.391 559.304c0-221.298-179.398-400.696-400.696-400.696s-400.696 179.398-400.696 400.696c0 221.298 179.398 400.696 400.696 400.696s400.696-179.398 400.696-400.696z" />
<glyph unicode="&#xe96e;" horiz-adv-x="801" d="M178.087 759.652h445.217v-378.435h-445.217v378.435z" />
<glyph unicode="&#xe96f;" horiz-adv-x="731" d="M350.988-3.708c83.249 0 150.739-13.495 150.739-30.142 0-16.655-67.49-30.149-150.739-30.149s-150.739 13.495-150.739 30.149c0 16.647 67.49 30.142 150.739 30.142z" />
<glyph unicode="&#xe970;" horiz-adv-x="731" d="M352.489 930.876c-183.992 0-333.132-149.156-333.132-333.132 0-131.535 76.259-245.237 186.961-299.382l146.171-332.211v964.726z" />
<glyph unicode="&#xe971;" horiz-adv-x="731" d="M352.5-33.851l146.171 332.211c110.702 54.145 186.961 167.847 186.961 299.382 0 183.976-149.14 333.132-333.132 333.132v-964.726z" />
<glyph unicode="&#xe972;" horiz-adv-x="731" d="M352.495 712.953c63.627 0 115.21-51.583 115.21-115.21s-51.583-115.21-115.21-115.21c-63.627 0-115.21 51.583-115.21 115.21s51.583 115.21 115.21 115.21z" />
<glyph unicode="&#xe973;" d="M976.957 447.944l44.926 117.181c4.922 12.928 1.085 27.583-9.728 36.351l-97.41 78.974-19.709 123.964c-2.178 13.696-12.93 24.383-26.624 26.56l-123.965 19.711-78.908 97.469c-8.704 10.816-23.68 14.656-36.287 9.728l-117.245-44.991-117.18 44.927c-12.992 4.992-27.519 1.024-36.287-9.728l-78.974-97.469-123.964-19.711c-13.631-2.176-24.383-12.928-26.559-26.559l-19.711-123.965-97.469-78.974c-10.752-8.703-14.656-23.359-9.728-36.286l44.927-117.181-44.927-117.18c-4.992-12.928-1.024-27.583 9.728-36.286l97.469-78.911 19.711-123.965c2.176-13.694 12.863-24.446 26.559-26.624l123.964-19.709 78.974-97.403c8.768-10.882 23.424-14.718 36.351-9.728l117.116 44.858 117.18-44.926c3.712-1.406 7.552-2.109 11.456-2.109 9.408 0 18.687 4.157 24.895 11.906l78.908 97.403 123.965 19.709c13.694 2.178 24.446 12.93 26.624 26.624l19.709 123.965 97.41 78.911c10.813 8.767 14.65 23.359 9.728 36.286l-44.926 117.18z" />
<glyph unicode="&#xe974;" d="M416.014 511.898c-52.926 0-95.997 43.071-95.997 95.997s43.071 95.997 95.997 95.997c52.926 0 95.997-43.071 95.997-95.997s-43.071-95.997-95.997-95.997zM416.014 639.894c-17.663 0-31.999-14.335-31.999-31.999s14.335-31.999 31.999-31.999c17.663 0 31.999 14.335 31.999 31.999s-14.336 31.999-31.999 31.999z" />
<glyph unicode="&#xe975;" d="M608.014 191.952c-52.926 0-95.997 43.069-95.997 95.999 0 52.926 43.071 95.997 95.997 95.997s96-43.071 96-95.997c0-52.929-43.074-95.999-96-95.999zM608.014 319.949c-17.599 0-31.999-14.399-31.999-31.999s14.399-31.999 31.999-31.999 31.999 14.397 31.999 31.999c0 17.599-14.399 31.999-31.999 31.999z" />
<glyph unicode="&#xe976;" d="M352.087 191.952c-6.464 0-12.928 1.918-18.56 5.953-14.399 10.301-17.727 30.269-7.424 44.667l319.99 447.99c10.304 14.399 30.271 17.727 44.669 7.424 14.404-10.24 17.667-30.271 7.427-44.607l-319.992-447.985c-6.336-8.772-16.128-13.442-26.111-13.442z" />
<glyph unicode="&#xe977;" d="M828.169 452.958l185.915 185.915-321.126 321.126-507.043-507.042z" />
<glyph unicode="&#xe978;" d="M338.028 452.957c0 43.252 16.496 86.502 49.504 119.511 66 65.999 173.020 65.999 239.020 0 33.007-33.009 49.504-76.259 49.504-119.511z" />
</font>
</defs>
</svg>
